<svg width="24" height="24" viewBox="0 0 24 24" fill="none" xmlns="http://www.w3.org/2000/svg">
<path d="M3.42481 11.9628C3.42454 12.1113 3.46838 12.2566 3.55078 12.3801C3.63317 12.5037 3.7504 12.6001 3.88761 12.6569C4.02482 12.7138 4.17583 12.7287 4.32149 12.6996C4.46715 12.6706 4.60091 12.5989 4.70581 12.4938L11.5983 5.59827C12.3017 4.89491 13.2556 4.49977 14.2503 4.49977C14.7428 4.49977 15.2305 4.59678 15.6856 4.78526C16.1406 4.97374 16.554 5.25 16.9023 5.59827C17.2506 5.94653 17.5268 6.35998 17.7153 6.81502C17.9038 7.27005 18.0008 7.75775 18.0008 8.25027C18.0008 8.74279 17.9038 9.23049 17.7153 9.68552C17.5268 10.1406 17.2506 10.554 16.9023 10.9023L8.94781 18.8568C8.6649 19.13 8.286 19.2812 7.8927 19.2778C7.49941 19.2744 7.12319 19.1166 6.84508 18.8385C6.56697 18.5604 6.40921 18.1842 6.4058 17.7909C6.40238 17.3976 6.55357 17.0187 6.82681 16.7358L14.7813 8.78127C14.851 8.71154 14.9064 8.62875 14.9441 8.53764C14.9818 8.44653 15.0013 8.34888 15.0013 8.25027C15.0013 8.15165 14.9818 8.054 14.9441 7.96289C14.9064 7.87178 14.851 7.789 14.7813 7.71927C14.7116 7.64954 14.6288 7.59422 14.5377 7.55648C14.4466 7.51874 14.3489 7.49932 14.2503 7.49932C14.1517 7.49932 14.054 7.51874 13.9629 7.55648C13.8718 7.59422 13.789 7.64954 13.7193 7.71927L5.76481 15.6753C5.47828 15.952 5.24973 16.283 5.0925 16.6491C4.93527 17.0151 4.85252 17.4087 4.84905 17.8071C4.84559 18.2054 4.9215 18.6004 5.07234 18.9691C5.22318 19.3378 5.44594 19.6728 5.72762 19.9545C6.0093 20.2361 6.34425 20.4589 6.71294 20.6097C7.08163 20.7606 7.47667 20.8365 7.87501 20.833C8.27335 20.8296 8.66701 20.7468 9.03302 20.5896C9.39903 20.4323 9.73007 20.2038 10.0068 19.9173L17.9613 11.9628C18.9459 10.9782 19.4991 9.64273 19.4991 8.25027C19.4991 6.85781 18.9459 5.52238 17.9613 4.53777C16.9767 3.55315 15.6413 3 14.2488 3C12.8563 3 11.5209 3.55315 10.5363 4.53777L3.64531 11.4318C3.57557 11.5014 3.52032 11.5842 3.48273 11.6754C3.44514 11.7665 3.42447 11.8642 3.42481 11.9628Z" fill="#18181A"/>
</svg>
