<svg width="72" height="72" viewBox="0 0 72 72" fill="none" xmlns="http://www.w3.org/2000/svg">
<path d="M35.6194 67.896L20.1909 69.2331L21.528 53.8045L53.6194 21.9188C54.0984 21.429 54.6704 21.0398 55.3019 20.7741C55.9333 20.5083 56.6115 20.3715 57.2966 20.3715C57.9817 20.3715 58.6599 20.5083 59.2913 20.7741C59.9228 21.0398 60.4948 21.429 60.9737 21.9188L67.5052 28.5017C67.9866 28.9801 68.3686 29.5491 68.6293 30.1757C68.89 30.8024 69.0243 31.4744 69.0243 32.1531C69.0243 32.8318 68.89 33.5039 68.6293 34.1305C68.3686 34.7572 67.9866 35.3261 67.5052 35.8045L35.6194 67.896ZM4.3303 20.4274C2.52515 20.1137 2.52515 17.5217 4.3303 17.208C7.5265 16.6517 10.4846 15.1562 12.8276 12.9122C15.1705 10.6681 16.7922 7.77722 17.4857 4.60797L17.5937 4.10912C17.9846 2.32969 20.5252 2.31426 20.9366 4.09883L21.0652 4.67483C21.7841 7.82998 23.4193 10.7024 25.7653 12.9313C28.1114 15.1602 31.0636 16.6462 34.2514 17.2028C36.0669 17.5114 36.0669 20.1188 34.2514 20.4377C31.0634 20.993 28.1105 22.4779 25.7635 24.7059C23.4166 26.9339 21.7802 29.8056 21.06 32.9605L20.9263 33.5417C20.52 35.3211 17.9794 35.3108 17.5886 33.5263L17.4857 33.0274C16.7915 29.8567 15.1683 26.9648 12.8234 24.7206C10.4785 22.4765 7.51808 20.9818 4.32001 20.4274H4.3303Z" stroke="#1C8113" stroke-width="3" stroke-linecap="round" stroke-linejoin="round"/>
</svg>
