<svg width="24" height="24" viewBox="0 0 24 24" fill="none" xmlns="http://www.w3.org/2000/svg">
<path d="M11.02 15.22L15.955 10.285L14.975 9.305L11.02 13.26L9.025 11.265L8.045 12.245L11.02 15.22ZM12 19C11.0317 19 10.1217 18.8161 9.27 18.4484C8.41833 18.0811 7.6775 17.5825 7.0475 16.9525C6.4175 16.3225 5.91887 15.5817 5.5516 14.73C5.18387 13.8783 5 12.9683 5 12C5 11.0317 5.18387 10.1217 5.5516 9.27C5.91887 8.41833 6.4175 7.6775 7.0475 7.0475C7.6775 6.4175 8.41833 5.91863 9.27 5.5509C10.1217 5.18363 11.0317 5 12 5C12.9683 5 13.8783 5.18363 14.73 5.5509C15.5817 5.91863 16.3225 6.4175 16.9525 7.0475C17.5825 7.6775 18.0811 8.41833 18.4484 9.27C18.8161 10.1217 19 11.0317 19 12C19 12.9683 18.8161 13.8783 18.4484 14.73C18.0811 15.5817 17.5825 16.3225 16.9525 16.9525C16.3225 17.5825 15.5817 18.0811 14.73 18.4484C13.8783 18.8161 12.9683 19 12 19Z" fill="#44B548"/>
</svg>
