<svg width="72" height="72" viewBox="0 0 72 72" fill="none" xmlns="http://www.w3.org/2000/svg">
<path fill-rule="evenodd" clip-rule="evenodd" d="M7.06318 34.7976C7.38211 34.4425 7.82903 34.2286 8.30565 34.2029C8.78228 34.1773 9.24958 34.342 9.60478 34.6608L21.6036 45.4608C21.7794 45.619 21.9224 45.8102 22.0244 46.0236C22.1264 46.237 22.1853 46.4684 22.1978 46.7046C22.2104 46.9407 22.1763 47.1771 22.0975 47.4001C22.0187 47.6231 21.8967 47.8284 21.7386 48.0042C21.5804 48.1801 21.3892 48.3231 21.1758 48.425C20.9624 48.527 20.731 48.5859 20.4948 48.5985C20.2587 48.611 20.0223 48.5769 19.7993 48.4981C19.5763 48.4193 19.371 48.2974 19.1952 48.1392L7.19638 37.3392C6.84176 37.0198 6.62852 36.5726 6.60354 36.096C6.57857 35.6194 6.7439 35.1524 7.06318 34.7976Z" fill="#1C8113"/>
<path fill-rule="evenodd" clip-rule="evenodd" d="M21.7369 23.9976C22.0562 24.3524 22.2215 24.8194 22.1965 25.296C22.1715 25.7726 21.9583 26.2198 21.6037 26.5392L9.60487 37.3392C9.2497 37.6591 8.782 37.8247 8.30469 37.7998C7.82737 37.7748 7.37952 37.5612 7.05967 37.206C6.73982 36.8509 6.57417 36.3832 6.59914 35.9058C6.62412 35.4285 6.8377 34.9807 7.19287 34.6608L19.1953 23.8608C19.5505 23.542 20.0178 23.3773 20.4944 23.4029C20.971 23.4286 21.4179 23.6425 21.7369 23.9976ZM64.9369 34.7976C65.2562 35.1524 65.4215 35.6194 65.3965 36.096C65.3715 36.5726 65.1583 37.0198 64.8037 37.3392L52.8049 48.1392C52.4497 48.4591 51.982 48.6247 51.5047 48.5998C51.0274 48.5748 50.5795 48.3612 50.2597 48.006C49.9398 47.6509 49.7742 47.1832 49.7991 46.7058C49.8241 46.2285 50.0377 45.7807 50.3929 45.4608L62.3953 34.6608C62.7505 34.342 63.2178 34.1773 63.6944 34.2029C64.171 34.2286 64.618 34.4425 64.9369 34.7976Z" fill="#1C8113"/>
<path fill-rule="evenodd" clip-rule="evenodd" d="M50.2633 23.9976C50.5822 23.6425 51.0291 23.4286 51.5058 23.4029C51.9824 23.3773 52.4497 23.542 52.8049 23.8608L64.8037 34.6608C64.9796 34.819 65.1226 35.0102 65.2245 35.2236C65.3265 35.437 65.3854 35.6684 65.398 35.9046C65.4105 36.1407 65.3764 36.3771 65.2976 36.6001C65.2188 36.8231 65.0968 37.0283 64.9387 37.2042C64.7806 37.3801 64.5893 37.5231 64.3759 37.625C64.1625 37.727 63.9311 37.7859 63.695 37.7985C63.4588 37.811 63.2225 37.7769 62.9995 37.6981C62.7765 37.6193 62.5712 37.4974 62.3953 37.3392L50.3965 26.5392C50.0419 26.2198 49.8286 25.7726 49.8037 25.296C49.7787 24.8194 49.944 24.3524 50.2633 23.9976ZM41.8753 14.4648C42.3354 14.5911 42.7265 14.8948 42.9628 15.3092C43.199 15.7237 43.2611 16.215 43.1353 16.6752L32.3353 56.2752C32.1976 56.722 31.8914 57.0976 31.4817 57.3226C31.0719 57.5477 30.5906 57.6045 30.1398 57.481C29.6889 57.3575 29.3037 57.0634 29.0658 56.661C28.8278 56.2586 28.7558 55.7794 28.8649 55.3248L39.6649 15.7248C39.7911 15.2647 40.0949 14.8736 40.5093 14.6373C40.9238 14.4011 41.4151 14.339 41.8753 14.4648Z" fill="#1C8113"/>
</svg>
