<svg width="24" height="25" viewBox="0 0 24 25" fill="none" xmlns="http://www.w3.org/2000/svg">
<path d="M16.125 14.7894H16.1249C15.9384 14.7894 15.7596 14.8635 15.6277 14.9953C15.4959 15.1272 15.4218 15.306 15.4218 15.4925C15.4218 15.679 15.4959 15.8578 15.6277 15.9897C15.7596 16.1215 15.9384 16.1956 16.1249 16.1956C16.1249 16.1956 16.1249 16.1956 16.1249 16.1956V16.2425C17.3743 16.2408 18.6042 16.552 19.7025 17.1476C20.8008 17.7431 21.7326 18.6042 22.4127 19.6522L16.125 14.7894ZM16.125 14.7894C16.7393 14.7888 17.346 14.6525 17.9016 14.3903C18.4572 14.1281 18.9481 13.7464 19.339 13.2725C19.73 12.7986 20.0115 12.2442 20.1634 11.6489C20.3153 11.0536 20.3338 10.4321 20.2177 9.82879C20.1015 9.2255 19.8536 8.6553 19.4915 8.15895C19.1294 7.6626 18.6622 7.25234 18.1232 6.95749C17.5842 6.66263 16.9867 6.49047 16.3735 6.45329C15.7602 6.41611 15.1464 6.51484 14.5757 6.74241L14.5757 6.7424L14.5744 6.74293C14.4882 6.78021 14.3954 6.79983 14.3014 6.80063C14.2074 6.80142 14.1143 6.78337 14.0274 6.74755C13.9405 6.71173 13.8617 6.65886 13.7956 6.59206C13.7295 6.52527 13.6775 6.4459 13.6426 6.35866C13.6077 6.27142 13.5907 6.17806 13.5925 6.08412C13.5942 5.99017 13.6148 5.89753 13.653 5.81168C13.6912 5.72583 13.7463 5.64851 13.8149 5.58429C13.8834 5.52006 13.9642 5.47023 14.0524 5.43775L14.0524 5.43777L14.0535 5.43731C15.3341 4.92658 16.7585 4.90821 18.0519 5.38572C19.3452 5.86323 20.4159 6.80279 21.0574 8.02315C21.6989 9.24352 21.8657 10.6582 21.5257 11.9943C21.1857 13.3304 20.3629 14.4933 19.2161 15.2585L19.1395 15.3096L19.2259 15.3415C21.0347 16.0082 22.5795 17.2418 23.6297 18.8584L23.6297 18.8584C23.7316 19.0146 23.7672 19.2049 23.7288 19.3873C23.6904 19.5698 23.5811 19.7295 23.4249 19.8314C23.2688 19.9332 23.0785 19.9689 22.8961 19.9305C22.7136 19.8921 22.5539 19.7828 22.4521 19.6267L16.125 14.7894ZM10.9661 15.2585L10.8894 15.3096L10.9759 15.3415C12.7846 16.0081 14.3293 17.2417 15.3795 18.8581C15.4781 19.0142 15.5113 19.2029 15.472 19.3833C15.4327 19.5638 15.3239 19.7215 15.1691 19.8225C15.0144 19.9234 14.8261 19.9594 14.6451 19.9226C14.4642 19.8859 14.305 19.7794 14.2018 19.6263C13.5166 18.5725 12.579 17.7066 11.4742 17.1071C10.3692 16.5076 9.13204 16.1935 7.87492 16.1935C6.61781 16.1935 5.3806 16.5076 4.27567 17.1071C3.17073 17.7067 2.23306 18.5727 1.54781 19.6267L1.54749 19.6272C1.4977 19.7059 1.43276 19.774 1.35643 19.8275C1.2801 19.8809 1.19391 19.9187 1.10286 19.9385C1.01182 19.9583 0.917738 19.9599 0.826089 19.9431C0.73444 19.9262 0.647052 19.8913 0.569004 19.8404C0.490956 19.7895 0.423805 19.7236 0.371454 19.6465C0.319103 19.5694 0.282597 19.4827 0.264057 19.3914C0.245518 19.3001 0.245314 19.206 0.26346 19.1146C0.281605 19.0232 0.317736 18.9363 0.369753 18.859L0.369758 18.859L0.37017 18.8584C1.42039 17.2418 2.96515 16.0082 4.77395 15.3415L4.86048 15.3096L4.78371 15.2585C3.7869 14.5949 3.03011 13.6281 2.62526 12.5011C2.2204 11.3741 2.18898 10.1467 2.53563 9.00049C2.88228 7.85426 3.5886 6.85 4.55015 6.13624C5.5117 5.42248 6.67742 5.03711 7.87492 5.03711C9.07243 5.03711 10.2382 5.42248 11.1997 6.13624C12.1612 6.85 12.8676 7.85426 13.2142 9.00049C13.5609 10.1467 13.5294 11.3741 13.1246 12.5011C12.7197 13.6281 11.9629 14.5949 10.9661 15.2585ZM3.70305 10.6175V10.6176C3.7043 11.7236 4.14424 12.784 4.92633 13.5661C5.70843 14.3482 6.76882 14.7881 7.87487 14.7894H7.87492C8.70004 14.7894 9.50663 14.5447 10.1927 14.0863C10.8788 13.6279 11.4135 12.9763 11.7292 12.214C12.045 11.4517 12.1276 10.6129 11.9666 9.80362C11.8057 8.99436 11.4083 8.251 10.8249 7.66756C10.2414 7.08411 9.49808 6.68678 8.68882 6.5258C7.87955 6.36483 7.04073 6.44745 6.27842 6.76321C5.51611 7.07897 4.86455 7.61369 4.40614 8.29975C3.94773 8.98581 3.70305 9.7924 3.70305 10.6175Z" fill="#F9F9F9" stroke="#F9F9F9" stroke-width="0.09375"/>
</svg>
