<svg width="72" height="72" viewBox="0 0 72 72" fill="none" xmlns="http://www.w3.org/2000/svg">
<path d="M31.5 60.75H40.5M31.5 60.75L32.625 51.75H39.375L40.5 60.75M31.5 60.75H24.75M40.5 60.75H47.25M11.25 11.25H60.75C61.9435 11.25 63.0881 11.7241 63.932 12.568C64.7759 13.4119 65.25 14.5565 65.25 15.75V47.25C65.25 48.4435 64.7759 49.5881 63.932 50.432C63.0881 51.2759 61.9435 51.75 60.75 51.75H11.25C10.0565 51.75 8.91193 51.2759 8.06802 50.432C7.22411 49.5881 6.75 48.4435 6.75 47.25V15.75C6.75 14.5565 7.22411 13.4119 8.06802 12.568C8.91193 11.7241 10.0565 11.25 11.25 11.25Z" stroke="#1C8113" stroke-width="3" stroke-linecap="round" stroke-linejoin="round"/>
</svg>
