<svg width="24" height="25" viewBox="0 0 24 25" fill="none" xmlns="http://www.w3.org/2000/svg">
<path d="M6.375 5.36719H14.625V6.11719H6.375V5.36719ZM6.375 8.36719H14.625V9.11719H6.375V8.36719ZM6.375 11.3672H10.125V12.1172H6.375V11.3672ZM6.375 18.8672H8.625V19.6172H6.375V18.8672Z" fill="#F9F9F9" stroke="#F9F9F9" stroke-width="0.75"/>
<path d="M22.2803 14.9619L20.0303 12.7119C19.8896 12.5713 19.6989 12.4923 19.5 12.4923C19.3011 12.4923 19.1104 12.5713 18.9697 12.7119L12 19.6817V22.9922H15.3105L22.2803 16.0224C22.4209 15.8818 22.4998 15.6911 22.4998 15.4922C22.4998 15.2933 22.4209 15.1026 22.2803 14.9619ZM14.6895 21.4922H13.5V20.3027L17.25 16.5527L18.4395 17.7422L14.6895 21.4922ZM19.5 16.6817L18.3105 15.4922L19.5 14.3027L20.6895 15.4922L19.5 16.6817ZM9 22.9922H4.5C4.1023 22.9918 3.721 22.8336 3.43978 22.5524C3.15856 22.2712 3.0004 21.8899 3 21.4922V3.49219C3.0004 3.09448 3.15856 2.71318 3.43978 2.43197C3.721 2.15075 4.1023 1.99258 4.5 1.99219H16.5C16.8977 1.99258 17.279 2.15075 17.5602 2.43197C17.8414 2.71318 17.9996 3.09448 18 3.49219V10.9922H16.5V3.49219H4.5V21.4922H9V22.9922Z" fill="#F9F9F9"/>
</svg>
