<svg width="72" height="72" viewBox="0 0 72 72" fill="none" xmlns="http://www.w3.org/2000/svg">
<path d="M51.636 61.212L51.312 58.557C50.172 58.307 49.234 57.977 48.498 57.567C47.762 57.159 47.062 56.582 46.398 55.836L43.893 56.838L42.276 54.393L44.343 52.662C44.011 51.602 43.845 50.567 43.845 49.557C43.845 48.549 44.011 47.515 44.343 46.455L42.276 44.724L43.893 42.276L46.395 43.281C47.061 42.497 47.762 41.909 48.498 41.517C49.236 41.127 50.174 40.807 51.312 40.557L51.636 37.905H54.636L54.957 40.557C56.097 40.807 57.035 41.127 57.771 41.517C58.507 41.909 59.207 42.497 59.871 43.281L62.376 42.276L63.993 44.724L61.926 46.455C62.258 47.515 62.424 48.549 62.424 49.557C62.424 50.565 62.258 51.6 61.926 52.662L63.993 54.393L62.376 56.838L59.874 55.836C59.208 56.582 58.507 57.159 57.771 57.567C57.033 57.977 56.095 58.307 54.957 58.557L54.636 61.212H51.636ZM53.136 56.022C54.9 56.022 56.418 55.386 57.69 54.114C58.96 52.842 59.595 51.323 59.595 49.557C59.595 47.793 58.96 46.275 57.69 45.003C56.418 43.731 54.9 43.095 53.136 43.095C51.37 43.095 49.851 43.731 48.579 45.003C47.309 46.275 46.674 47.793 46.674 49.557C46.674 51.323 47.309 52.842 48.579 54.114C49.851 55.384 51.37 56.022 53.136 56.022ZM12 54V18V31.305V30V54ZM13.845 57C12.465 57 11.313 56.538 10.389 55.614C9.463 54.688 9 53.535 9 52.155V19.845C9 18.465 9.463 17.313 10.389 16.389C11.313 15.463 12.465 15 13.845 15H28.788L34.788 21H58.155C59.535 21 60.687 21.463 61.611 22.389C62.537 23.313 63 24.465 63 25.845V32.73C62.524 32.426 62.045 32.161 61.563 31.935C61.083 31.711 60.562 31.501 60 31.305V25.845C60 25.307 59.827 24.865 59.481 24.519C59.135 24.173 58.693 24 58.155 24H33.585L27.585 18H13.845C13.307 18 12.865 18.173 12.519 18.519C12.173 18.865 12 19.307 12 19.845V52.155C12 52.693 12.173 53.135 12.519 53.481C12.865 53.827 13.307 54 13.845 54H34.089C34.201 54.55 34.333 55.065 34.485 55.545C34.637 56.025 34.823 56.51 35.043 57H13.845Z" fill="#1C8113"/>
</svg>
