<svg width="24" height="25" viewBox="0 0 24 25" fill="none" xmlns="http://www.w3.org/2000/svg">
<path d="M4.801 4.06219C4.93479 3.74494 5.15918 3.47421 5.4461 3.28388C5.73301 3.09355 6.0697 2.99209 6.414 2.99219H17.588C18.29 2.99219 18.925 3.41219 19.199 4.05919L22.94 12.8872C22.98 12.9792 23 13.0792 23 13.1802V20.7422C23 21.2063 22.8156 21.6514 22.4874 21.9796C22.1592 22.3078 21.7141 22.4922 21.25 22.4922H2.75C2.28587 22.4922 1.84075 22.3078 1.51256 21.9796C1.18437 21.6514 1 21.2063 1 20.7422V13.2422C1 13.1422 1.02 13.0432 1.059 12.9512L4.8 4.06319L4.801 4.06219ZM6.414 4.49219C6.36487 4.49227 6.31685 4.50682 6.27595 4.53404C6.23504 4.56125 6.20306 4.59991 6.184 4.64519L2.88 12.4922H8C8.1311 12.4921 8.25992 12.5265 8.37362 12.5917C8.48732 12.657 8.58192 12.751 8.648 12.8642L10.18 15.4922H13.818L15.351 12.8642C15.4164 12.7521 15.5097 12.6589 15.6219 12.5937C15.7341 12.5285 15.8613 12.4935 15.991 12.4922L21.121 12.4412L17.817 4.64419C17.7978 4.59909 17.7657 4.56064 17.7248 4.53362C17.684 4.50659 17.636 4.49219 17.587 4.49219H6.414ZM21.5 13.9372L16.433 13.9872L14.898 16.6202C14.8319 16.7334 14.7373 16.8274 14.6236 16.8926C14.5099 16.9579 14.3811 16.9922 14.25 16.9922H9.75C9.6189 16.9922 9.49008 16.9579 9.37638 16.8926C9.26268 16.8274 9.16808 16.7334 9.102 16.6202L7.57 13.9922H2.5V20.7422C2.5 20.8802 2.612 20.9922 2.75 20.9922H21.25C21.3163 20.9922 21.3799 20.9658 21.4268 20.919C21.4737 20.8721 21.5 20.8085 21.5 20.7422V13.9372Z" fill="#18181A"/>
</svg>
