<svg width="24" height="25" viewBox="0 0 24 25" fill="none" xmlns="http://www.w3.org/2000/svg">
<path d="M17.3998 12.792C17.3998 12.5533 17.4946 12.3244 17.6634 12.1556C17.8322 11.9868 18.0611 11.892 18.2998 11.892C18.5385 11.892 18.7674 11.9868 18.9362 12.1556C19.105 12.3244 19.1998 12.5533 19.1998 12.792C19.1998 13.0307 19.105 13.2596 18.9362 13.4284C18.7674 13.5972 18.5385 13.692 18.2998 13.692C18.0611 13.692 17.8322 13.5972 17.6634 13.4284C17.4946 13.2596 17.3998 13.0307 17.3998 12.792ZM11.6634 12.1556L11.2424 11.7346L11.6634 12.1556C11.8322 11.9868 12.0611 11.892 12.2998 11.892C12.5385 11.892 12.7674 11.9868 12.9362 12.1556C13.105 12.3244 13.1998 12.5533 13.1998 12.792C13.1998 13.0307 13.105 13.2596 12.9362 13.4284C12.7674 13.5972 12.5385 13.692 12.2998 13.692C12.0611 13.692 11.8322 13.5972 11.6634 13.4284C11.4946 13.2596 11.3998 13.0307 11.3998 12.792C11.3998 12.5533 11.4946 12.3244 11.6634 12.1556ZM5.3998 12.792C5.3998 12.5533 5.49463 12.3244 5.66341 12.1556C5.83219 11.9868 6.06111 11.892 6.2998 11.892C6.5385 11.892 6.76742 11.9868 6.9362 12.1556C7.10498 12.3244 7.1998 12.5533 7.1998 12.792C7.1998 13.0307 7.10498 13.2596 6.9362 13.4284C6.76742 13.5972 6.5385 13.692 6.2998 13.692C6.06111 13.692 5.83219 13.5972 5.66341 13.4284C5.49463 13.2596 5.3998 13.0307 5.3998 12.792Z" fill="#F9F9F9" stroke="#F9F9F9" stroke-width="1.2"/>
</svg>
