<svg width="24" height="25" viewBox="0 0 24 25" fill="none" xmlns="http://www.w3.org/2000/svg">
<path d="M17.4981 18.9772L20.6281 9.5862C21.8761 5.8412 22.5011 3.9682 21.5121 2.9802C20.5241 1.9912 18.6521 2.6162 14.9061 3.8642L5.57513 6.9742C3.49313 7.6682 2.45213 8.0152 2.13613 8.7782C2.06163 8.95779 2.01671 9.14826 2.00313 9.3422C1.94413 10.1662 2.72013 10.9422 4.27213 12.4932L4.55513 12.7762C4.80913 13.0302 4.93713 13.1582 5.03313 13.2992C5.22313 13.5792 5.33013 13.9062 5.34313 14.2442C5.35113 14.4152 5.32413 14.5942 5.27113 14.9492C5.07513 16.2532 4.97713 16.9052 5.09213 17.4072C5.32213 18.4072 6.09613 19.1922 7.09213 19.4352C7.59213 19.5582 8.24613 19.4692 9.55213 19.2922L9.62413 19.2822C9.99213 19.2322 10.1761 19.2072 10.3531 19.2182C10.6731 19.2372 10.9831 19.3422 11.2511 19.5212C11.3981 19.6192 11.5301 19.7512 11.7921 20.0132L12.0441 20.2652C13.5541 21.7752 14.3091 22.5302 15.1101 22.4912C15.3301 22.4802 15.5481 22.4292 15.7501 22.3392C16.4841 22.0162 16.8231 21.0032 17.4981 18.9772Z" stroke="#F9F9F9" stroke-width="1.5"/>
<path d="M6 18.4922L21 3.49219" stroke="#F9F9F9" stroke-width="1.5" stroke-linecap="round"/>
</svg>
