<svg width="24" height="25" viewBox="0 0 24 25" fill="none" xmlns="http://www.w3.org/2000/svg">
<path fill-rule="evenodd" clip-rule="evenodd" d="M10.663 3.97844C10.8013 4.12117 10.8774 4.31299 10.8744 4.51175C10.8714 4.71051 10.7896 4.89994 10.647 5.03844L7.851 7.75044H18C18.1989 7.75044 18.3897 7.82945 18.5303 7.97011C18.671 8.11076 18.75 8.30153 18.75 8.50044C18.75 8.69935 18.671 8.89011 18.5303 9.03077C18.3897 9.17142 18.1989 9.25044 18 9.25044H7.85L10.647 11.9624C10.7213 12.0301 10.7813 12.112 10.8234 12.2033C10.8654 12.2946 10.8887 12.3934 10.8918 12.4938C10.8949 12.5943 10.8778 12.6943 10.8415 12.788C10.8052 12.8818 10.7504 12.9672 10.6804 13.0394C10.6105 13.1115 10.5267 13.1688 10.4341 13.2079C10.3415 13.2471 10.242 13.2672 10.1415 13.2671C10.041 13.267 9.94156 13.2467 9.84905 13.2074C9.75654 13.1682 9.67286 13.1107 9.603 13.0384L5.478 9.03844C5.40603 8.96853 5.34882 8.8849 5.30975 8.79249C5.27068 8.70008 5.25055 8.60077 5.25055 8.50044C5.25055 8.40011 5.27068 8.3008 5.30975 8.20838C5.34882 8.11597 5.40603 8.03234 5.478 7.96244L9.603 3.96244C9.74573 3.82409 9.93755 3.74806 10.1363 3.75106C10.3351 3.75406 10.5245 3.83584 10.663 3.97844ZM13.337 11.9784C13.4755 11.8358 13.6649 11.7541 13.8637 11.7511C14.0624 11.7481 14.2543 11.8241 14.397 11.9624L18.522 15.9624C18.594 16.0323 18.6512 16.116 18.6903 16.2084C18.7293 16.3008 18.7495 16.4001 18.7495 16.5004C18.7495 16.6008 18.7293 16.7001 18.6903 16.7925C18.6512 16.8849 18.594 16.9685 18.522 17.0384L14.397 21.0384C14.3271 21.1107 14.2435 21.1682 14.151 21.2074C14.0584 21.2467 13.959 21.267 13.8585 21.2671C13.758 21.2672 13.6585 21.2471 13.5659 21.2079C13.4733 21.1688 13.3895 21.1115 13.3196 21.0394C13.2496 20.9672 13.1948 20.8818 13.1585 20.788C13.1222 20.6943 13.1051 20.5943 13.1082 20.4938C13.1113 20.3934 13.1346 20.2946 13.1766 20.2033C13.2187 20.112 13.2787 20.0301 13.353 19.9624L16.149 17.2504H6C5.80109 17.2504 5.61032 17.1714 5.46967 17.0308C5.32902 16.8901 5.25 16.6994 5.25 16.5004C5.25 16.3015 5.32902 16.1108 5.46967 15.9701C5.61032 15.8295 5.80109 15.7504 6 15.7504H16.15L13.353 13.0384C13.2104 12.8999 13.1286 12.7105 13.1256 12.5117C13.1226 12.313 13.1987 12.1212 13.337 11.9784Z" fill="#18181A"/>
</svg>
