<svg width="72" height="72" viewBox="0 0 72 72" fill="none" xmlns="http://www.w3.org/2000/svg">
<path d="M36 63C32.264 63 28.754 62.293 25.47 60.879C22.186 59.463 19.329 57.531 16.899 55.083C14.469 52.635 12.545 49.771 11.127 46.491C9.709 43.211 9 39.714 9 36C9 29.15 11.244 23.17 15.732 18.06C20.22 12.95 25.976 9.97999 33 9.14999V12.84C27.004 13.656 22.12 16.277 18.348 20.703C14.576 25.129 12.691 30.228 12.693 36C12.693 42.438 14.968 47.932 19.518 52.482C24.068 57.032 29.562 59.307 36 59.307C39.776 59.307 43.31 58.473 46.602 56.805C49.892 55.135 52.55 52.946 54.576 50.238L57.762 52.2C55.178 55.604 52.008 58.255 48.252 60.153C44.502 62.051 40.418 63 36 63ZM60.795 46.65L57.612 44.805C58.138 43.643 58.552 42.299 58.854 40.773C59.156 39.249 59.307 37.658 59.307 36C59.307 30.112 57.383 24.965 53.535 20.559C49.687 16.153 44.842 13.58 39 12.84V9.14999C45.754 9.78399 51.442 12.686 56.064 17.856C60.688 23.026 63 29.074 63 36C63 37.97 62.82 39.855 62.46 41.655C62.096 43.455 61.541 45.12 60.795 46.65Z" fill="#1C8113"/>
</svg>
