<svg width="20" height="21" viewBox="0 0 20 21" fill="none" xmlns="http://www.w3.org/2000/svg">
<path d="M17.3438 12.375C17.3438 12.4993 17.2944 12.6185 17.2065 12.7065C17.1185 12.7944 16.9993 12.8438 16.875 12.8438H14.8438V14.4062H16.25C16.3743 14.4062 16.4935 14.4556 16.5815 14.5435C16.6694 14.6315 16.7188 14.7507 16.7188 14.875C16.7188 14.9993 16.6694 15.1185 16.5815 15.2065C16.4935 15.2944 16.3743 15.3438 16.25 15.3438H14.8438V16.75C14.8438 16.8743 14.7944 16.9935 14.7065 17.0815C14.6185 17.1694 14.4993 17.2188 14.375 17.2188C14.2507 17.2188 14.1315 17.1694 14.0435 17.0815C13.9556 16.9935 13.9062 16.8743 13.9062 16.75V12.375C13.9062 12.2507 13.9556 12.1315 14.0435 12.0435C14.1315 11.9556 14.2507 11.9062 14.375 11.9062H16.875C16.9993 11.9062 17.1185 11.9556 17.2065 12.0435C17.2944 12.1315 17.3438 12.2507 17.3438 12.375ZM7.03125 13.9375C7.03125 14.4762 6.81724 14.9929 6.43631 15.3738C6.05538 15.7547 5.53872 15.9688 5 15.9688H4.21875V16.75C4.21875 16.8743 4.16936 16.9935 4.08146 17.0815C3.99355 17.1694 3.87432 17.2188 3.75 17.2188C3.62568 17.2188 3.50645 17.1694 3.41854 17.0815C3.33064 16.9935 3.28125 16.8743 3.28125 16.75V12.375C3.28125 12.2507 3.33064 12.1315 3.41854 12.0435C3.50645 11.9556 3.62568 11.9062 3.75 11.9062H5C5.53872 11.9062 6.05538 12.1203 6.43631 12.5012C6.81724 12.8821 7.03125 13.3988 7.03125 13.9375ZM6.09375 13.9375C6.09375 13.6474 5.97852 13.3692 5.7734 13.1641C5.56828 12.959 5.29008 12.8438 5 12.8438H4.21875V15.0312H5C5.29008 15.0312 5.56828 14.916 5.7734 14.7109C5.97852 14.5058 6.09375 14.2276 6.09375 13.9375ZM12.6562 14.5625C12.6562 15.267 12.3764 15.9426 11.8783 16.4408C11.3801 16.9389 10.7045 17.2188 10 17.2188H8.75C8.62568 17.2188 8.50645 17.1694 8.41854 17.0815C8.33064 16.9935 8.28125 16.8743 8.28125 16.75V12.375C8.28125 12.2507 8.33064 12.1315 8.41854 12.0435C8.50645 11.9556 8.62568 11.9062 8.75 11.9062H10C10.7045 11.9062 11.3801 12.1861 11.8783 12.6842C12.3764 13.1824 12.6562 13.858 12.6562 14.5625ZM11.7188 14.5625C11.7188 14.1067 11.5377 13.6695 11.2153 13.3472C10.893 13.0248 10.4558 12.8438 10 12.8438H9.21875V16.2812H10C10.4558 16.2812 10.893 16.1002 11.2153 15.7778C11.5377 15.4555 11.7188 15.0183 11.7188 14.5625ZM3.28125 9.25V3.625C3.28125 3.33492 3.39648 3.05672 3.6016 2.8516C3.80672 2.64648 4.08492 2.53125 4.375 2.53125H11.875C11.9367 2.5312 11.9977 2.54332 12.0547 2.56692C12.1117 2.59051 12.1635 2.62512 12.207 2.66875L16.582 7.04375C16.6697 7.1317 16.7188 7.25083 16.7188 7.375V9.25C16.7188 9.37432 16.6694 9.49355 16.5815 9.58146C16.4935 9.66936 16.3743 9.71875 16.25 9.71875C16.1257 9.71875 16.0065 9.66936 15.9185 9.58146C15.8306 9.49355 15.7812 9.37432 15.7812 9.25V7.84375H11.875C11.7507 7.84375 11.6315 7.79436 11.5435 7.70646C11.4556 7.61855 11.4062 7.49932 11.4062 7.375V3.46875H4.375C4.33356 3.46875 4.29382 3.48521 4.26451 3.51451C4.23521 3.54382 4.21875 3.58356 4.21875 3.625V9.25C4.21875 9.37432 4.16936 9.49355 4.08146 9.58146C3.99355 9.66936 3.87432 9.71875 3.75 9.71875C3.62568 9.71875 3.50645 9.66936 3.41854 9.58146C3.33064 9.49355 3.28125 9.37432 3.28125 9.25ZM12.3438 6.90625H15.1188L12.3438 4.13125V6.90625Z" fill="#18181A"/>
</svg>
