<svg width="20" height="20" viewBox="0 0 20 20" fill="none" xmlns="http://www.w3.org/2000/svg">
<g clip-path="url(#clip0_87_4380)">
<path d="M0.8125 2.875C0.8125 2.56006 0.937611 2.25801 1.16031 2.03531C1.38301 1.81261 1.68506 1.6875 2 1.6875H18.625C18.9399 1.6875 19.242 1.81261 19.4647 2.03531C19.6874 2.25801 19.8125 2.56006 19.8125 2.875V5.25C19.8125 5.56494 19.6874 5.86699 19.4647 6.08969C19.242 6.31239 18.9399 6.4375 18.625 6.4375V15.3438C18.625 16.1311 18.3122 16.8862 17.7555 17.443C17.1987 17.9997 16.4436 18.3125 15.6562 18.3125H4.96875C4.18139 18.3125 3.42628 17.9997 2.86953 17.443C2.31278 16.8862 2 16.1311 2 15.3438V6.4375C1.68506 6.4375 1.38301 6.31239 1.16031 6.08969C0.937611 5.86699 0.8125 5.56494 0.8125 5.25V2.875ZM3.1875 6.4375V15.3438C3.1875 15.8162 3.37517 16.2692 3.70922 16.6033C4.04327 16.9373 4.49633 17.125 4.96875 17.125H15.6562C16.1287 17.125 16.5817 16.9373 16.9158 16.6033C17.2498 16.2692 17.4375 15.8162 17.4375 15.3438V6.4375H3.1875ZM18.625 2.875H2V5.25H18.625V2.875ZM6.75 9.40625C6.75 9.24878 6.81256 9.09776 6.92391 8.98641C7.03526 8.87506 7.18628 8.8125 7.34375 8.8125H13.2812C13.4387 8.8125 13.5897 8.87506 13.7011 8.98641C13.8124 9.09776 13.875 9.24878 13.875 9.40625C13.875 9.56372 13.8124 9.71474 13.7011 9.82609C13.5897 9.93744 13.4387 10 13.2812 10H7.34375C7.18628 10 7.03526 9.93744 6.92391 9.82609C6.81256 9.71474 6.75 9.56372 6.75 9.40625Z" fill="#18181A"/>
</g>
<defs>
<clipPath id="clip0_87_4380">
<rect width="19" height="18.625" fill="white" transform="translate(0.8125 0.6875)"/>
</clipPath>
</defs>
</svg>
