<svg width="21" height="20" viewBox="0 0 21 20" fill="none" xmlns="http://www.w3.org/2000/svg">
<path d="M10.9062 2.34439C10.499 2.34427 10.1018 2.47043 9.76924 2.70549C9.4367 2.94055 9.18524 3.27295 9.0495 3.65689C8.98945 3.81826 8.86837 3.94957 8.71239 4.02249C8.55641 4.09542 8.37802 4.10412 8.21568 4.04671C8.05334 3.98931 7.92007 3.8704 7.8446 3.71564C7.76913 3.56087 7.75751 3.38265 7.81225 3.21939C8.03848 2.57947 8.45754 2.02542 9.01173 1.63355C9.56591 1.24168 10.228 1.03125 10.9067 1.03125C11.5854 1.03125 12.2475 1.24168 12.8016 1.63355C13.3558 2.02542 13.7749 2.57947 14.0011 3.21939C14.0591 3.38358 14.0496 3.56408 13.9745 3.7212C13.8994 3.87832 13.765 3.99919 13.6008 4.0572C13.4366 4.11522 13.2561 4.10564 13.099 4.03056C12.9419 3.95549 12.821 3.82108 12.763 3.65689C12.6271 3.27302 12.3757 2.9407 12.0431 2.70565C11.7106 2.47061 11.3134 2.3444 10.9062 2.34439ZM2.8125 5.18814C2.8125 5.01409 2.88164 4.84717 3.00471 4.7241C3.12778 4.60103 3.2947 4.53189 3.46875 4.53189H18.3438C18.5178 4.53189 18.6847 4.60103 18.8078 4.7241C18.9309 4.84717 19 5.01409 19 5.18814C19 5.36219 18.9309 5.52911 18.8078 5.65218C18.6847 5.77525 18.5178 5.84439 18.3438 5.84439H3.46875C3.2947 5.84439 3.12778 5.77525 3.00471 5.65218C2.88164 5.52911 2.8125 5.36219 2.8125 5.18814ZM5.58187 7.33189C5.57027 7.15819 5.49014 6.99621 5.35911 6.88159C5.22808 6.76697 5.05689 6.7091 4.88319 6.7207C4.70949 6.73231 4.54751 6.81244 4.43289 6.94347C4.31827 7.0745 4.2604 7.24569 4.272 7.41939L4.678 13.5024C4.75238 14.6241 4.81275 15.5306 4.9545 16.2429C5.10238 16.9823 5.35262 17.6 5.87063 18.0839C6.38775 18.5686 7.02125 18.7778 7.76937 18.8749C8.48863 18.9694 9.39687 18.9694 10.5221 18.9694H11.2912C12.4156 18.9694 13.3247 18.9694 14.044 18.8749C14.7913 18.7778 15.4248 18.5686 15.9428 18.0839C16.4599 17.6 16.7101 16.9814 16.858 16.2429C16.9998 15.5306 17.0592 14.6241 17.1345 13.5024L17.5405 7.41939C17.5521 7.24569 17.4942 7.0745 17.3796 6.94347C17.265 6.81244 17.103 6.73231 16.9293 6.7207C16.7556 6.7091 16.5844 6.76697 16.4534 6.88159C16.3224 6.99621 16.2422 7.15819 16.2306 7.33189L15.8281 13.3694C15.7494 14.548 15.6934 15.3688 15.5709 15.9856C15.451 16.585 15.2848 16.9018 15.0459 17.1258C14.8061 17.3498 14.4789 17.495 13.8734 17.5738C13.2495 17.6551 12.427 17.6569 11.2449 17.6569H10.5676C9.38637 17.6569 8.56388 17.6551 7.93913 17.5738C7.33363 17.495 7.00637 17.3498 6.76662 17.1258C6.52775 16.9018 6.3615 16.585 6.24163 15.9856C6.11913 15.3688 6.06312 14.548 5.98438 13.3694L5.58187 7.33189Z" fill="#18181A"/>
<path d="M8.74041 8.54998C8.90682 8.53351 9.07304 8.58298 9.20254 8.68751C9.33203 8.79204 9.4142 8.94307 9.43099 9.10742L9.85156 13.2612C9.86388 13.4233 9.81159 13.5837 9.70586 13.7082C9.60012 13.8327 9.44931 13.9115 9.28558 13.9278C9.12185 13.944 8.95817 13.8965 8.82945 13.7952C8.70073 13.694 8.61716 13.5471 8.59657 13.3858L8.176 9.23203C8.15932 9.06768 8.20941 8.90351 8.31524 8.77561C8.42108 8.64771 8.57401 8.56656 8.74041 8.54998ZM13.6367 9.23203C13.649 9.06997 13.5968 8.90956 13.491 8.78503C13.3853 8.6605 13.2345 8.5817 13.0707 8.56545C12.907 8.54919 12.7433 8.59676 12.6146 8.69801C12.4859 8.79926 12.4023 8.94618 12.3817 9.10742L11.9612 13.2612C11.9488 13.4233 12.0011 13.5837 12.1069 13.7082C12.2126 13.8327 12.3634 13.9115 12.5271 13.9278C12.6909 13.944 12.8545 13.8965 12.9833 13.7952C13.112 13.694 13.1956 13.5471 13.2161 13.3858L13.6367 9.23203Z" fill="#18181A"/>
</svg>
