<svg width="24" height="24" viewBox="0 0 24 24" fill="none" xmlns="http://www.w3.org/2000/svg">
<path fill-rule="evenodd" clip-rule="evenodd" d="M10.4861 4.11369C11.1611 2.95169 12.8391 2.95169 13.5141 4.11369L15.5791 7.67369C15.7691 8.00169 16.0991 8.22469 16.4741 8.28169L19.9041 8.79969C21.3981 9.02569 21.9221 10.9137 20.7581 11.8777L18.2591 13.9477C18.0869 14.0905 17.9561 14.2769 17.8805 14.4874C17.8049 14.698 17.7871 14.9249 17.8291 15.1447L18.5291 18.8207C18.8031 20.2607 17.2911 21.3787 15.9941 20.6967L12.5821 18.8997C12.4027 18.8053 12.2029 18.7559 12.0001 18.7559C11.7974 18.7559 11.5976 18.8053 11.4181 18.8997L8.00614 20.6967C6.70914 21.3797 5.19714 20.2607 5.47114 18.8207L6.17114 15.1447C6.21314 14.9249 6.1954 14.698 6.11976 14.4874C6.04413 14.2769 5.91337 14.0905 5.74114 13.9477L3.24114 11.8777C2.07814 10.9137 2.60114 9.02569 4.09714 8.79969L7.52714 8.28169C7.71225 8.25361 7.88869 8.18431 8.04343 8.0789C8.19816 7.97349 8.32725 7.83467 8.42114 7.67269L10.4861 4.11369ZM12.2161 4.86669C12.1941 4.82892 12.1626 4.79758 12.1247 4.7758C12.0868 4.75402 12.0439 4.74256 12.0001 4.74256C11.9564 4.74256 11.9135 4.75402 11.8756 4.7758C11.8377 4.79758 11.8061 4.82892 11.7841 4.86669L9.71814 8.42669C9.51135 8.78274 9.22725 9.08781 8.88681 9.31939C8.54636 9.55097 8.15826 9.70315 7.75114 9.76469L4.32114 10.2827C4.27338 10.2899 4.22873 10.3107 4.19257 10.3427C4.15641 10.3748 4.13031 10.4166 4.1174 10.4631C4.1045 10.5096 4.10535 10.5589 4.11986 10.605C4.13436 10.6511 4.1619 10.6919 4.19914 10.7227L6.69814 12.7927C7.077 13.1066 7.36471 13.5163 7.53128 13.9793C7.69784 14.4422 7.73716 14.9414 7.64514 15.4247L6.94514 19.1007C6.93634 19.1469 6.94076 19.1947 6.95789 19.2385C6.97502 19.2823 7.00416 19.3204 7.04197 19.3484C7.07978 19.3764 7.12473 19.3931 7.17163 19.3967C7.21854 19.4003 7.26551 19.3906 7.30714 19.3687L10.7191 17.5727C11.1141 17.3648 11.5538 17.2561 12.0001 17.2561C12.4465 17.2561 12.8862 17.3648 13.2811 17.5727L16.6931 19.3687C16.7348 19.3906 16.7817 19.4003 16.8286 19.3967C16.8756 19.3931 16.9205 19.3764 16.9583 19.3484C16.9961 19.3204 17.0253 19.2823 17.0424 19.2385C17.0595 19.1947 17.0639 19.1469 17.0551 19.1007L16.3551 15.4247C16.2631 14.9414 16.3024 14.4422 16.469 13.9793C16.6356 13.5163 16.9233 13.1066 17.3021 12.7927L19.8021 10.7227C19.8394 10.6919 19.8669 10.6509 19.8814 10.6048C19.8958 10.5586 19.8966 10.5093 19.8836 10.4627C19.8706 10.4162 19.8443 10.3744 19.808 10.3424C19.7718 10.3105 19.727 10.2897 19.6791 10.2827L16.2491 9.76469C15.8419 9.70304 15.4538 9.55071 15.1133 9.31895C14.7729 9.08719 14.4888 8.78192 14.2821 8.42569L12.2161 4.86669Z" fill="#18181A"/>
</svg>
