<svg width="12" height="12" viewBox="0 0 12 12" fill="none" xmlns="http://www.w3.org/2000/svg">
<g clip-path="url(#clip0_87_4403)">
<path d="M10.8004 5.99976L6.1948 10.6054C5.55548 11.2283 4.69653 11.5743 3.80395 11.5684C2.91137 11.5626 2.057 11.2055 1.42584 10.5743C0.794674 9.94316 0.437521 9.08879 0.431713 8.19621C0.425904 7.30363 0.771909 6.44468 1.3948 5.80536L6.138 1.06216C6.56235 0.637809 7.13789 0.399414 7.73801 0.399414C8.33812 0.399414 8.91366 0.637809 9.33801 1.06216C9.76235 1.4865 10.0007 2.06204 10.0007 2.66216C10.0007 3.26227 9.76235 3.83781 9.33801 4.26216L4.7316 8.86856C4.51943 9.08073 4.23166 9.19993 3.9316 9.19993C3.63155 9.19993 3.34378 9.08073 3.1316 8.86856C2.91943 8.65638 2.80023 8.36861 2.80023 8.06856C2.80023 7.7685 2.91943 7.48073 3.1316 7.26856L7.60041 2.79976" stroke="#686970" stroke-width="0.75"/>
</g>
<defs>
<clipPath id="clip0_87_4403">
<rect width="12" height="12" fill="white"/>
</clipPath>
</defs>
</svg>
