<svg width="14" height="12" viewBox="0 0 14 12" fill="none" xmlns="http://www.w3.org/2000/svg">
<path fill-rule="evenodd" clip-rule="evenodd" d="M5.99043 0.743109C6.44043 -0.0315573 7.5591 -0.0315573 8.0091 0.743109L9.38577 3.11644C9.51243 3.33511 9.73243 3.48378 9.98243 3.52178L12.2691 3.86711C13.2651 4.01778 13.6144 5.27644 12.8384 5.91911L11.1724 7.29911C11.0576 7.3943 10.9704 7.51856 10.92 7.65892C10.8696 7.79929 10.8578 7.95061 10.8858 8.09711L11.3524 10.5478C11.5351 11.5078 10.5271 12.2531 9.66243 11.7984L7.38777 10.6004C7.26812 10.5375 7.13496 10.5046 6.99977 10.5046C6.86457 10.5046 6.73141 10.5375 6.61177 10.6004L4.3371 11.7984C3.47243 12.2538 2.46443 11.5078 2.6471 10.5478L3.11377 8.09711C3.14177 7.95061 3.12994 7.79929 3.07952 7.65892C3.02909 7.51856 2.94192 7.3943 2.8271 7.29911L1.16043 5.91911C0.385101 5.27644 0.733768 4.01778 1.7311 3.86711L4.01777 3.52178C4.14117 3.50306 4.2588 3.45686 4.36196 3.38658C4.46512 3.31631 4.55117 3.22376 4.61377 3.11578L5.99043 0.743109ZM7.14377 1.24511C7.12909 1.21993 7.10808 1.19904 7.08281 1.18452C7.05754 1.17 7.02891 1.16236 6.99977 1.16236C6.97062 1.16236 6.94199 1.17 6.91672 1.18452C6.89146 1.19904 6.87044 1.21993 6.85577 1.24511L5.47843 3.61844C5.34058 3.85581 5.15118 4.05919 4.92421 4.21358C4.69725 4.36796 4.43851 4.46942 4.1671 4.51044L1.88043 4.85578C1.8486 4.86056 1.81882 4.87447 1.79472 4.89582C1.77062 4.91716 1.75321 4.94503 1.74461 4.97606C1.73601 5.00708 1.73657 5.03994 1.74624 5.07065C1.75592 5.10136 1.77427 5.12861 1.7991 5.14911L3.4651 6.52911C3.71767 6.73837 3.90948 7.01155 4.02053 7.32018C4.13157 7.6288 4.15778 7.96157 4.09643 8.28378L3.62977 10.7344C3.6239 10.7653 3.62685 10.7971 3.63827 10.8263C3.64969 10.8555 3.66912 10.8809 3.69432 10.8996C3.71953 10.9182 3.74949 10.9294 3.78076 10.9318C3.81203 10.9342 3.84335 10.9277 3.8711 10.9131L6.14577 9.71578C6.40909 9.57716 6.70219 9.50472 6.99977 9.50472C7.29734 9.50472 7.59045 9.57716 7.85377 9.71578L10.1284 10.9131C10.1562 10.9277 10.1875 10.9342 10.2188 10.9318C10.25 10.9294 10.28 10.9182 10.3052 10.8996C10.3304 10.8809 10.3498 10.8555 10.3613 10.8263C10.3727 10.7971 10.3756 10.7653 10.3698 10.7344L9.9031 8.28378C9.84175 7.96157 9.86796 7.6288 9.97901 7.32018C10.0901 7.01155 10.2819 6.73837 10.5344 6.52911L12.2011 5.14911C12.2259 5.12857 12.2443 5.10126 12.2539 5.0705C12.2636 5.03974 12.2641 5.00685 12.2554 4.9758C12.2467 4.94476 12.2292 4.9169 12.205 4.89559C12.1808 4.87429 12.151 4.86046 12.1191 4.85578L9.83243 4.51044C9.56096 4.46934 9.30219 4.36779 9.07522 4.21328C8.84825 4.05878 8.65888 3.85527 8.5211 3.61778L7.14377 1.24511Z" fill="#8E8F96"/>
</svg>
