<svg width="162" height="62" viewBox="0 0 162 62" fill="none" xmlns="http://www.w3.org/2000/svg">
<rect x="0.280029" width="161" height="62" rx="16" fill="#323236"/>
<g clip-path="url(#clip0_50_6115)">
<path d="M33.053 19.012C33.002 18.955 31.1645 19.0345 29.5655 20.77C27.9665 22.504 28.2125 24.493 28.2485 24.544C28.2845 24.595 30.5285 24.6745 31.961 22.657C33.3935 20.6395 33.104 19.0705 33.053 19.012ZM38.024 36.6115C37.952 36.4675 34.5365 34.7605 34.8545 31.4785C35.1725 28.1965 37.367 27.295 37.4015 27.1975C37.436 27.1 36.506 26.0125 35.5205 25.462C34.7968 25.0743 33.9961 24.8519 33.176 24.811C33.014 24.8065 32.4515 24.6685 31.295 24.985C30.533 25.1935 28.8155 25.8685 28.343 25.8955C27.869 25.9225 26.459 25.1125 24.9425 24.898C23.972 24.7105 22.943 25.0945 22.2065 25.39C21.4715 25.684 20.0735 26.521 19.0955 28.7455C18.1175 30.9685 18.629 34.4905 18.995 35.5855C19.361 36.6805 19.9325 38.4715 20.9045 39.7795C21.7685 41.2555 22.9145 42.28 23.393 42.628C23.8715 42.976 25.2215 43.207 26.1575 42.7285C26.9105 42.2665 28.2695 42.001 28.8065 42.0205C29.342 42.04 30.398 42.2515 31.4795 42.829C32.336 43.1245 33.146 43.0015 33.9575 42.6715C34.769 42.34 35.9435 41.083 37.3145 38.5345C37.8345 37.3495 38.071 36.7085 38.024 36.6115Z" fill="#F5F6FA"/>
<path d="M33.053 19.012C33.002 18.955 31.1645 19.0345 29.5655 20.77C27.9665 22.504 28.2125 24.493 28.2485 24.544C28.2845 24.595 30.5285 24.6745 31.961 22.657C33.3935 20.6395 33.104 19.0705 33.053 19.012ZM38.024 36.6115C37.952 36.4675 34.5365 34.7605 34.8545 31.4785C35.1725 28.1965 37.367 27.295 37.4015 27.1975C37.436 27.1 36.506 26.0125 35.5205 25.462C34.7968 25.0743 33.9961 24.8519 33.176 24.811C33.014 24.8065 32.4515 24.6685 31.295 24.985C30.533 25.1935 28.8155 25.8685 28.343 25.8955C27.869 25.9225 26.459 25.1125 24.9425 24.898C23.972 24.7105 22.943 25.0945 22.2065 25.39C21.4715 25.684 20.0735 26.521 19.0955 28.7455C18.1175 30.9685 18.629 34.4905 18.995 35.5855C19.361 36.6805 19.9325 38.4715 20.9045 39.7795C21.7685 41.2555 22.9145 42.28 23.393 42.628C23.8715 42.976 25.2215 43.207 26.1575 42.7285C26.9105 42.2665 28.2695 42.001 28.8065 42.0205C29.342 42.04 30.398 42.2515 31.4795 42.829C32.336 43.1245 33.146 43.0015 33.9575 42.6715C34.769 42.34 35.9435 41.083 37.3145 38.5345C37.8345 37.3495 38.071 36.7085 38.024 36.6115Z" fill="#F5F6FA"/>
</g>
<path d="M52.0641 25H49.2388V16.2727H52.1536C53.0087 16.2727 53.7431 16.4474 54.3567 16.7969C54.9704 17.1435 55.4405 17.642 55.7672 18.2926C56.0968 18.9403 56.2616 19.7173 56.2616 20.6236C56.2616 21.5327 56.0954 22.3139 55.763 22.9673C55.4334 23.6207 54.9562 24.1236 54.3312 24.4759C53.7062 24.8253 52.9505 25 52.0641 25ZM50.5556 23.8494H51.9917C52.6565 23.8494 53.209 23.7244 53.6493 23.4744C54.0897 23.2216 54.4192 22.8565 54.638 22.3793C54.8567 21.8991 54.9661 21.3139 54.9661 20.6236C54.9661 19.9389 54.8567 19.358 54.638 18.8807C54.4221 18.4034 54.0996 18.0412 53.6707 17.794C53.2417 17.5469 52.709 17.4233 52.0726 17.4233H50.5556V23.8494ZM60.5538 25.1321C59.9402 25.1321 59.4047 24.9915 58.9473 24.7102C58.4899 24.429 58.1348 24.0355 57.8819 23.5298C57.6291 23.0241 57.5027 22.4332 57.5027 21.7571C57.5027 21.0781 57.6291 20.4844 57.8819 19.9759C58.1348 19.4673 58.4899 19.0724 58.9473 18.7912C59.4047 18.5099 59.9402 18.3693 60.5538 18.3693C61.1675 18.3693 61.703 18.5099 62.1604 18.7912C62.6177 19.0724 62.9729 19.4673 63.2257 19.9759C63.4785 20.4844 63.605 21.0781 63.605 21.7571C63.605 22.4332 63.4785 23.0241 63.2257 23.5298C62.9729 24.0355 62.6177 24.429 62.1604 24.7102C61.703 24.9915 61.1675 25.1321 60.5538 25.1321ZM60.5581 24.0625C60.9558 24.0625 61.2854 23.9574 61.5467 23.7472C61.8081 23.5369 62.0013 23.2571 62.1263 22.9077C62.2541 22.5582 62.318 22.1733 62.318 21.7528C62.318 21.3352 62.2541 20.9517 62.1263 20.6023C62.0013 20.25 61.8081 19.9673 61.5467 19.7543C61.2854 19.5412 60.9558 19.4347 60.5581 19.4347C60.1575 19.4347 59.8251 19.5412 59.5609 19.7543C59.2996 19.9673 59.105 20.25 58.9771 20.6023C58.8521 20.9517 58.7896 21.3352 58.7896 21.7528C58.7896 22.1733 58.8521 22.5582 58.9771 22.9077C59.105 23.2571 59.2996 23.5369 59.5609 23.7472C59.8251 23.9574 60.1575 24.0625 60.5581 24.0625ZM66.247 25L64.3209 18.4545H65.6376L66.9203 23.2614H66.9842L68.2712 18.4545H69.5879L70.8663 23.2401H70.9302L72.2044 18.4545H73.5212L71.5993 25H70.2996L68.97 20.2741H68.872L67.5425 25H66.247ZM76.0045 21.1136V25H74.7303V18.4545H75.9533V19.5199H76.0343C76.1849 19.1733 76.4207 18.8949 76.7417 18.6847C77.0655 18.4744 77.4732 18.3693 77.9647 18.3693C78.4107 18.3693 78.8013 18.4631 79.1366 18.6506C79.4718 18.8352 79.7317 19.1108 79.9164 19.4773C80.1011 19.8437 80.1934 20.2969 80.1934 20.8366V25H78.9192V20.9901C78.9192 20.5156 78.7957 20.1449 78.5485 19.8778C78.3013 19.608 77.9618 19.473 77.53 19.473C77.2346 19.473 76.9718 19.5369 76.7417 19.6648C76.5144 19.7926 76.334 19.9801 76.2005 20.2273C76.0698 20.4716 76.0045 20.767 76.0045 21.1136ZM83.1763 16.2727V25H81.9022V16.2727H83.1763ZM87.6476 25.1321C87.0339 25.1321 86.4984 24.9915 86.041 24.7102C85.5837 24.429 85.2285 24.0355 84.9757 23.5298C84.7229 23.0241 84.5964 22.4332 84.5964 21.7571C84.5964 21.0781 84.7229 20.4844 84.9757 19.9759C85.2285 19.4673 85.5837 19.0724 86.041 18.7912C86.4984 18.5099 87.0339 18.3693 87.6476 18.3693C88.2612 18.3693 88.7967 18.5099 89.2541 18.7912C89.7115 19.0724 90.0666 19.4673 90.3194 19.9759C90.5723 20.4844 90.6987 21.0781 90.6987 21.7571C90.6987 22.4332 90.5723 23.0241 90.3194 23.5298C90.0666 24.0355 89.7115 24.429 89.2541 24.7102C88.7967 24.9915 88.2612 25.1321 87.6476 25.1321ZM87.6518 24.0625C88.0496 24.0625 88.3791 23.9574 88.6405 23.7472C88.9018 23.5369 89.095 23.2571 89.22 22.9077C89.3479 22.5582 89.4118 22.1733 89.4118 21.7528C89.4118 21.3352 89.3479 20.9517 89.22 20.6023C89.095 20.25 88.9018 19.9673 88.6405 19.7543C88.3791 19.5412 88.0496 19.4347 87.6518 19.4347C87.2513 19.4347 86.9189 19.5412 86.6547 19.7543C86.3933 19.9673 86.1987 20.25 86.0709 20.6023C85.9459 20.9517 85.8834 21.3352 85.8834 21.7528C85.8834 22.1733 85.9459 22.5582 86.0709 22.9077C86.1987 23.2571 86.3933 23.5369 86.6547 23.7472C86.9189 23.9574 87.2513 24.0625 87.6518 24.0625ZM94.0258 25.1449C93.611 25.1449 93.236 25.0682 92.9008 24.9148C92.5655 24.7585 92.2999 24.5327 92.1039 24.2372C91.9107 23.9418 91.8141 23.5795 91.8141 23.1506C91.8141 22.7812 91.8851 22.4773 92.0272 22.2386C92.1692 22 92.361 21.8111 92.6025 21.6719C92.8439 21.5327 93.1138 21.4276 93.4121 21.3565C93.7104 21.2855 94.0144 21.2315 94.3241 21.1946C94.7161 21.1491 95.0343 21.1122 95.2786 21.0838C95.5229 21.0526 95.7005 21.0028 95.8113 20.9347C95.9221 20.8665 95.9775 20.7557 95.9775 20.6023V20.5724C95.9775 20.2003 95.8724 19.9119 95.6621 19.7074C95.4547 19.5028 95.1451 19.4006 94.7332 19.4006C94.3042 19.4006 93.9661 19.4957 93.7189 19.6861C93.4746 19.8736 93.3056 20.0824 93.2118 20.3125L92.0144 20.0398C92.1564 19.642 92.3638 19.321 92.6366 19.0767C92.9121 18.8295 93.2289 18.6506 93.5868 18.5398C93.9448 18.4261 94.3212 18.3693 94.7161 18.3693C94.9775 18.3693 95.2545 18.4006 95.5471 18.4631C95.8425 18.5227 96.1181 18.6335 96.3738 18.7955C96.6323 18.9574 96.8439 19.1889 97.0087 19.4901C97.1735 19.7884 97.2559 20.1761 97.2559 20.6534V25H96.0116V24.1051H95.9604C95.878 24.2699 95.7545 24.4318 95.5897 24.5909C95.4249 24.75 95.2133 24.8821 94.9547 24.9872C94.6962 25.0923 94.3866 25.1449 94.0258 25.1449ZM94.3028 24.1222C94.655 24.1222 94.9562 24.0526 95.2062 23.9134C95.459 23.7741 95.6508 23.5923 95.7814 23.3679C95.915 23.1406 95.9817 22.8977 95.9817 22.6392V21.7955C95.9363 21.8409 95.8482 21.8835 95.7175 21.9233C95.5897 21.9602 95.4434 21.9929 95.2786 22.0213C95.1138 22.0469 94.9533 22.071 94.7971 22.0938C94.6408 22.1136 94.5101 22.1307 94.405 22.1449C94.1579 22.1761 93.932 22.2287 93.7275 22.3026C93.5258 22.3764 93.3638 22.483 93.2417 22.6222C93.1224 22.7585 93.0627 22.9403 93.0627 23.1676C93.0627 23.483 93.1792 23.7216 93.4121 23.8835C93.6451 24.0426 93.942 24.1222 94.3028 24.1222ZM101.403 25.1278C100.875 25.1278 100.403 24.9929 99.9885 24.723C99.5765 24.4503 99.2527 24.0625 99.0169 23.5597C98.7839 23.054 98.6675 22.4474 98.6675 21.7401C98.6675 21.0327 98.7854 20.4276 99.0212 19.9247C99.2598 19.4219 99.5865 19.0369 100.001 18.7699C100.416 18.5028 100.886 18.3693 101.412 18.3693C101.818 18.3693 102.145 18.4375 102.392 18.5739C102.642 18.7074 102.835 18.8636 102.971 19.0426C103.111 19.2216 103.219 19.3793 103.295 19.5156H103.372V16.2727H104.646V25H103.402V23.9815H103.295C103.219 24.1207 103.108 24.2798 102.963 24.4588C102.821 24.6378 102.625 24.794 102.375 24.9276C102.125 25.0611 101.801 25.1278 101.403 25.1278ZM101.685 24.0412C102.051 24.0412 102.361 23.9446 102.613 23.7514C102.869 23.5554 103.062 23.2841 103.193 22.9375C103.327 22.5909 103.393 22.1875 103.393 21.7273C103.393 21.2727 103.328 20.875 103.197 20.5341C103.067 20.1932 102.875 19.9276 102.622 19.7372C102.369 19.5469 102.057 19.4517 101.685 19.4517C101.301 19.4517 100.981 19.5511 100.726 19.75C100.47 19.9489 100.277 20.2202 100.146 20.5639C100.018 20.9077 99.9544 21.2955 99.9544 21.7273C99.9544 22.1648 100.02 22.5582 100.15 22.9077C100.281 23.2571 100.474 23.5341 100.73 23.7386C100.988 23.9403 101.307 24.0412 101.685 24.0412ZM112.398 25.1321C111.784 25.1321 111.248 24.9915 110.791 24.7102C110.334 24.429 109.979 24.0355 109.726 23.5298C109.473 23.0241 109.346 22.4332 109.346 21.7571C109.346 21.0781 109.473 20.4844 109.726 19.9759C109.979 19.4673 110.334 19.0724 110.791 18.7912C111.248 18.5099 111.784 18.3693 112.398 18.3693C113.011 18.3693 113.547 18.5099 114.004 18.7912C114.461 19.0724 114.817 19.4673 115.069 19.9759C115.322 20.4844 115.449 21.0781 115.449 21.7571C115.449 22.4332 115.322 23.0241 115.069 23.5298C114.817 24.0355 114.461 24.429 114.004 24.7102C113.547 24.9915 113.011 25.1321 112.398 25.1321ZM112.402 24.0625C112.8 24.0625 113.129 23.9574 113.39 23.7472C113.652 23.5369 113.845 23.2571 113.97 22.9077C114.098 22.5582 114.162 22.1733 114.162 21.7528C114.162 21.3352 114.098 20.9517 113.97 20.6023C113.845 20.25 113.652 19.9673 113.39 19.7543C113.129 19.5412 112.8 19.4347 112.402 19.4347C112.001 19.4347 111.669 19.5412 111.405 19.7543C111.143 19.9673 110.949 20.25 110.821 20.6023C110.696 20.9517 110.633 21.3352 110.633 21.7528C110.633 22.1733 110.696 22.5582 110.821 22.9077C110.949 23.2571 111.143 23.5369 111.405 23.7472C111.669 23.9574 112.001 24.0625 112.402 24.0625ZM118.145 21.1136V25H116.871V18.4545H118.094V19.5199H118.175C118.325 19.1733 118.561 18.8949 118.882 18.6847C119.206 18.4744 119.614 18.3693 120.105 18.3693C120.551 18.3693 120.942 18.4631 121.277 18.6506C121.612 18.8352 121.872 19.1108 122.057 19.4773C122.242 19.8437 122.334 20.2969 122.334 20.8366V25H121.06V20.9901C121.06 20.5156 120.936 20.1449 120.689 19.8778C120.442 19.608 120.102 19.473 119.671 19.473C119.375 19.473 119.112 19.5369 118.882 19.6648C118.655 19.7926 118.475 19.9801 118.341 20.2273C118.21 20.4716 118.145 20.767 118.145 21.1136ZM130.274 18.4545V19.4773H126.699V18.4545H130.274ZM127.658 16.8864H128.932V23.0781C128.932 23.3253 128.969 23.5114 129.042 23.6364C129.116 23.7585 129.211 23.8423 129.328 23.8878C129.447 23.9304 129.577 23.9517 129.716 23.9517C129.818 23.9517 129.908 23.9446 129.984 23.9304C130.061 23.9162 130.121 23.9048 130.163 23.8963L130.393 24.9489C130.319 24.9773 130.214 25.0057 130.078 25.0341C129.942 25.0653 129.771 25.0824 129.567 25.0852C129.231 25.0909 128.919 25.0312 128.629 24.9062C128.339 24.7812 128.105 24.5881 127.926 24.3267C127.747 24.0653 127.658 23.7372 127.658 23.3423V16.8864ZM133.098 21.1136V25H131.824V16.2727H133.081V19.5199H133.162C133.316 19.1676 133.55 18.8878 133.865 18.6804C134.181 18.473 134.593 18.3693 135.101 18.3693C135.55 18.3693 135.942 18.4616 136.277 18.6463C136.615 18.831 136.877 19.1065 137.061 19.473C137.249 19.8366 137.343 20.2912 137.343 20.8366V25H136.068V20.9901C136.068 20.5099 135.945 20.1378 135.698 19.8736C135.45 19.6065 135.107 19.473 134.666 19.473C134.365 19.473 134.095 19.5369 133.857 19.6648C133.621 19.7926 133.435 19.9801 133.298 20.2273C133.165 20.4716 133.098 20.767 133.098 21.1136ZM141.864 25.1321C141.219 25.1321 140.664 24.9943 140.198 24.7188C139.735 24.4403 139.377 24.0497 139.124 23.5469C138.874 23.0412 138.749 22.4489 138.749 21.7699C138.749 21.0994 138.874 20.5085 139.124 19.9972C139.377 19.4858 139.729 19.0866 140.181 18.7997C140.635 18.5128 141.166 18.3693 141.774 18.3693C142.144 18.3693 142.502 18.4304 142.848 18.5526C143.195 18.6747 143.506 18.8665 143.781 19.1278C144.057 19.3892 144.274 19.7287 144.433 20.1463C144.593 20.5611 144.672 21.0653 144.672 21.6591V22.1108H139.469V21.1562H143.423C143.423 20.821 143.355 20.5241 143.219 20.2656C143.083 20.0043 142.891 19.7983 142.644 19.6477C142.399 19.4972 142.112 19.4219 141.783 19.4219C141.425 19.4219 141.112 19.5099 140.845 19.6861C140.581 19.8594 140.377 20.0866 140.232 20.3679C140.09 20.6463 140.019 20.9489 140.019 21.2756V22.0213C140.019 22.4588 140.095 22.831 140.249 23.1378C140.405 23.4446 140.622 23.679 140.901 23.8409C141.179 24 141.504 24.0795 141.877 24.0795C142.118 24.0795 142.338 24.0455 142.537 23.9773C142.736 23.9062 142.908 23.8011 143.053 23.6619C143.198 23.5227 143.308 23.3509 143.385 23.1463L144.591 23.3636C144.495 23.7187 144.321 24.0298 144.071 24.2969C143.824 24.5611 143.513 24.767 143.138 24.9148C142.766 25.0597 142.341 25.1321 141.864 25.1321Z" fill="#D2D2D8"/>
<path d="M50.8241 43H48.7275L53.4384 29.9091H55.7204L60.4313 43H58.3347L54.6337 32.2869H54.5315L50.8241 43ZM51.1756 37.8736H57.9768V39.5355H51.1756V37.8736ZM62.1683 46.6818V33.1818H64.0348V34.7734H64.1946C64.3054 34.5689 64.4652 34.3324 64.674 34.0639C64.8828 33.7955 65.1726 33.5611 65.5433 33.3608C65.9141 33.1562 66.4041 33.054 67.0135 33.054C67.8061 33.054 68.5135 33.2543 69.1357 33.6548C69.7578 34.0554 70.2458 34.6328 70.5995 35.3871C70.9574 36.1413 71.1364 37.049 71.1364 38.1101C71.1364 39.1712 70.9595 40.081 70.6058 40.8395C70.2522 41.5937 69.7664 42.1754 69.1485 42.5845C68.5306 42.9893 67.8253 43.1918 67.0327 43.1918C66.4361 43.1918 65.9482 43.0916 65.5689 42.8913C65.1939 42.6911 64.8999 42.4567 64.6868 42.1882C64.4737 41.9197 64.3097 41.6811 64.1946 41.4723H64.0796V46.6818H62.1683ZM64.0412 38.0909C64.0412 38.7812 64.1414 39.3864 64.3416 39.9062C64.5419 40.4261 64.8317 40.8331 65.211 41.1271C65.5902 41.4169 66.0547 41.5618 66.6044 41.5618C67.1754 41.5618 67.6527 41.4105 68.0362 41.108C68.4198 40.8011 68.7095 40.3857 68.9056 39.8615C69.1058 39.3374 69.206 38.7472 69.206 38.0909C69.206 37.4432 69.108 36.8615 68.912 36.3459C68.7202 35.8303 68.4304 35.4233 68.0426 35.125C67.6591 34.8267 67.1797 34.6776 66.6044 34.6776C66.0504 34.6776 65.5817 34.8203 65.1982 35.1058C64.8189 35.3913 64.5313 35.7898 64.3352 36.3011C64.1392 36.8125 64.0412 37.4091 64.0412 38.0909ZM73.2777 46.6818V33.1818H75.1442V34.7734H75.304C75.4148 34.5689 75.5746 34.3324 75.7834 34.0639C75.9922 33.7955 76.282 33.5611 76.6527 33.3608C77.0235 33.1562 77.5135 33.054 78.1229 33.054C78.9155 33.054 79.6229 33.2543 80.2451 33.6548C80.8672 34.0554 81.3551 34.6328 81.7088 35.3871C82.0668 36.1413 82.2458 37.049 82.2458 38.1101C82.2458 39.1712 82.0689 40.081 81.7152 40.8395C81.3615 41.5937 80.8757 42.1754 80.2578 42.5845C79.6399 42.9893 78.9347 43.1918 78.1421 43.1918C77.5455 43.1918 77.0576 43.0916 76.6783 42.8913C76.3033 42.6911 76.0093 42.4567 75.7962 42.1882C75.5831 41.9197 75.4191 41.6811 75.304 41.4723H75.1889V46.6818H73.2777ZM75.1506 38.0909C75.1506 38.7812 75.2507 39.3864 75.451 39.9062C75.6513 40.4261 75.9411 40.8331 76.3203 41.1271C76.6996 41.4169 77.1641 41.5618 77.7138 41.5618C78.2848 41.5618 78.7621 41.4105 79.1456 41.108C79.5291 40.8011 79.8189 40.3857 80.0149 39.8615C80.2152 39.3374 80.3154 38.7472 80.3154 38.0909C80.3154 37.4432 80.2174 36.8615 80.0213 36.3459C79.8296 35.8303 79.5398 35.4233 79.152 35.125C78.7685 34.8267 78.2891 34.6776 77.7138 34.6776C77.1598 34.6776 76.6911 34.8203 76.3076 35.1058C75.9283 35.3913 75.6406 35.7898 75.4446 36.3011C75.2486 36.8125 75.1506 37.4091 75.1506 38.0909ZM96.4441 33.348C96.3759 32.7429 96.0947 32.2741 95.6003 31.9418C95.106 31.6051 94.4839 31.4368 93.7339 31.4368C93.1969 31.4368 92.7324 31.522 92.3404 31.6925C91.9484 31.8587 91.6437 32.0888 91.4263 32.3828C91.2133 32.6726 91.1067 33.0028 91.1067 33.3736C91.1067 33.6847 91.1792 33.9531 91.3241 34.179C91.4732 34.4048 91.6671 34.5945 91.9057 34.7479C92.1486 34.897 92.4086 35.0227 92.6856 35.125C92.9626 35.223 93.2289 35.304 93.4846 35.3679L94.763 35.7003C95.1806 35.8026 95.6089 35.9411 96.0478 36.1158C96.4867 36.2905 96.8937 36.5206 97.2687 36.8061C97.6437 37.0916 97.9462 37.4453 98.1763 37.8672C98.4107 38.2891 98.5279 38.794 98.5279 39.3821C98.5279 40.1236 98.3361 40.782 97.9526 41.3572C97.5734 41.9325 97.0215 42.3864 96.2971 42.7188C95.5769 43.0511 94.7055 43.2173 93.6827 43.2173C92.7026 43.2173 91.8546 43.0618 91.1387 42.7507C90.4228 42.4396 89.8624 41.9986 89.4576 41.4276C89.0528 40.8523 88.829 40.1705 88.7864 39.3821H90.768C90.8063 39.8551 90.9597 40.2493 91.2282 40.5646C91.5009 40.8757 91.8482 41.108 92.2701 41.2614C92.6962 41.4105 93.1628 41.4851 93.6699 41.4851C94.2282 41.4851 94.7246 41.3977 95.1593 41.223C95.5982 41.044 95.9434 40.7969 96.1948 40.4815C96.4462 40.1619 96.5719 39.7891 96.5719 39.3629C96.5719 38.9751 96.4611 38.6577 96.2395 38.4105C96.0222 38.1634 95.7261 37.9588 95.3511 37.7969C94.9803 37.6349 94.5606 37.4922 94.0918 37.3686L92.5449 36.9467C91.4966 36.6612 90.6657 36.2415 90.052 35.6875C89.4427 35.1335 89.138 34.4006 89.138 33.4886C89.138 32.7344 89.3425 32.076 89.7516 31.5135C90.1607 30.951 90.7147 30.5142 91.4136 30.2031C92.1124 29.8878 92.9008 29.7301 93.7786 29.7301C94.665 29.7301 95.4469 29.8857 96.1245 30.1967C96.8063 30.5078 97.3432 30.9361 97.7353 31.4815C98.1273 32.0227 98.3319 32.6449 98.3489 33.348H96.4441ZM105.318 33.1818V34.7159H99.9549V33.1818H105.318ZM101.393 30.8295H103.304V40.1172C103.304 40.4879 103.36 40.767 103.471 40.9545C103.581 41.1378 103.724 41.2635 103.899 41.3317C104.078 41.3956 104.272 41.4276 104.48 41.4276C104.634 41.4276 104.768 41.4169 104.883 41.3956C104.998 41.3743 105.088 41.3572 105.152 41.3445L105.497 42.9233C105.386 42.9659 105.228 43.0085 105.024 43.0511C104.819 43.098 104.564 43.1236 104.257 43.1278C103.754 43.1364 103.285 43.0469 102.851 42.8594C102.416 42.6719 102.064 42.3821 101.796 41.9901C101.527 41.598 101.393 41.1058 101.393 40.5135V30.8295ZM111.462 43.1982C110.542 43.1982 109.738 42.9872 109.052 42.5653C108.366 42.1435 107.834 41.5533 107.454 40.7947C107.075 40.0362 106.885 39.1499 106.885 38.1357C106.885 37.1172 107.075 36.2266 107.454 35.4638C107.834 34.701 108.366 34.1087 109.052 33.6868C109.738 33.2649 110.542 33.054 111.462 33.054C112.383 33.054 113.186 33.2649 113.872 33.6868C114.558 34.1087 115.091 34.701 115.47 35.4638C115.849 36.2266 116.039 37.1172 116.039 38.1357C116.039 39.1499 115.849 40.0362 115.47 40.7947C115.091 41.5533 114.558 42.1435 113.872 42.5653C113.186 42.9872 112.383 43.1982 111.462 43.1982ZM111.469 41.5938C112.065 41.5938 112.56 41.4361 112.952 41.1207C113.344 40.8054 113.633 40.3857 113.821 39.8615C114.013 39.3374 114.109 38.7599 114.109 38.1293C114.109 37.5028 114.013 36.9276 113.821 36.4034C113.633 35.875 113.344 35.451 112.952 35.1314C112.56 34.8118 112.065 34.652 111.469 34.652C110.868 34.652 110.369 34.8118 109.973 35.1314C109.581 35.451 109.289 35.875 109.097 36.4034C108.91 36.9276 108.816 37.5028 108.816 38.1293C108.816 38.7599 108.91 39.3374 109.097 39.8615C109.289 40.3857 109.581 40.8054 109.973 41.1207C110.369 41.4361 110.868 41.5938 111.469 41.5938ZM118.172 43V33.1818H120.02V34.7415H120.122C120.301 34.2131 120.616 33.7976 121.068 33.495C121.524 33.1882 122.039 33.0348 122.615 33.0348C122.734 33.0348 122.875 33.0391 123.037 33.0476C123.203 33.0561 123.333 33.0668 123.427 33.0795V34.9077C123.35 34.8864 123.213 34.8629 123.017 34.8374C122.821 34.8075 122.625 34.7926 122.429 34.7926C121.978 34.7926 121.575 34.8885 121.221 35.0803C120.872 35.2678 120.595 35.5298 120.39 35.8665C120.186 36.1989 120.083 36.5781 120.083 37.0043V43H118.172ZM128.96 43.1982C127.993 43.1982 127.16 42.9915 126.461 42.5781C125.767 42.1605 125.23 41.5746 124.85 40.8203C124.475 40.0618 124.288 39.1733 124.288 38.1548C124.288 37.1491 124.475 36.2628 124.85 35.4957C125.23 34.7287 125.758 34.13 126.436 33.6996C127.117 33.2692 127.914 33.054 128.826 33.054C129.38 33.054 129.917 33.1456 130.437 33.3288C130.957 33.5121 131.423 33.7997 131.837 34.1918C132.25 34.5838 132.576 35.093 132.815 35.7195C133.053 36.3416 133.173 37.098 133.173 37.9886V38.6662H125.368V37.2344H131.3C131.3 36.7315 131.198 36.2862 130.993 35.8984C130.789 35.5064 130.501 35.1974 130.13 34.9716C129.764 34.7457 129.333 34.6328 128.839 34.6328C128.302 34.6328 127.833 34.7649 127.433 35.0291C127.036 35.2891 126.73 35.63 126.512 36.0518C126.299 36.4695 126.193 36.9233 126.193 37.4134V38.532C126.193 39.1882 126.308 39.7464 126.538 40.2067C126.772 40.6669 127.098 41.0185 127.516 41.2614C127.933 41.5 128.421 41.6193 128.98 41.6193C129.342 41.6193 129.672 41.5682 129.97 41.4659C130.269 41.3594 130.526 41.2017 130.744 40.9929C130.961 40.7841 131.127 40.5263 131.242 40.2195L133.051 40.5455C132.906 41.0781 132.647 41.5447 132.272 41.9453C131.901 42.3416 131.434 42.6506 130.872 42.8722C130.313 43.0895 129.676 43.1982 128.96 43.1982Z" fill="#F9F9F9"/>
<defs>
<clipPath id="clip0_50_6115">
<rect width="24" height="24" fill="white" transform="translate(16.28 19)"/>
</clipPath>
</defs>
</svg>
