<svg width="24" height="25" viewBox="0 0 24 25" fill="none" xmlns="http://www.w3.org/2000/svg">
<path d="M13.8297 19.7464C13.6803 19.7469 13.5327 19.7139 13.3977 19.6499C13.2627 19.5858 13.1438 19.4924 13.0497 19.3764L8.21968 13.3764C8.07259 13.1974 7.99219 12.973 7.99219 12.7414C7.99219 12.5097 8.07259 12.2853 8.21968 12.1064L13.2197 6.10637C13.3894 5.90215 13.6333 5.77373 13.8978 5.74935C14.1622 5.72497 14.4255 5.80663 14.6297 5.97637C14.8339 6.14611 14.9623 6.39002 14.9867 6.65445C15.0111 6.91887 14.9294 7.18215 14.7597 7.38637L10.2897 12.7464L14.6097 18.1064C14.732 18.2532 14.8096 18.4319 14.8335 18.6214C14.8574 18.811 14.8265 19.0034 14.7444 19.1759C14.6624 19.3485 14.5326 19.4939 14.3705 19.595C14.2084 19.6961 14.0207 19.7486 13.8297 19.7464Z" fill="#8E8F96"/>
</svg>
