<svg width="40" height="32" viewBox="0 0 40 32" fill="none" xmlns="http://www.w3.org/2000/svg">
<path d="M8.82812 30.3311L9.6991 26.3054M14.1957 31.4924L14.7764 28.8086M23.0849 25.0897C22.7525 25.2811 22.3836 25.4008 22.0021 25.4409C21.6206 25.4811 21.2349 25.4408 20.8698 25.3228L12.9926 22.7757C12.3447 22.5662 11.7978 22.1235 11.458 21.5334C11.1181 20.9433 11.0097 20.248 11.1536 19.5825L13.4704 8.87412C13.5516 8.49917 13.7104 8.14539 13.9366 7.83557C14.1628 7.52574 14.4515 7.26676 14.7839 7.07532C15.1164 6.88388 15.4853 6.76423 15.8668 6.72407C16.2483 6.68391 16.634 6.72415 16.999 6.84217L24.8762 9.38927C25.5241 9.59877 26.0711 10.0415 26.4109 10.6316M11.4733 21.3513L19.9774 19.0929C20.4456 18.8219 20.8558 18.4614 21.1846 18.0319C21.5135 17.6024 21.7545 17.1124 21.8939 16.5897C22.0333 16.0671 22.0684 15.5221 21.9972 14.9859C21.926 14.4497 21.7499 13.9327 21.4789 13.4646L15.1927 7.40657" stroke="#1BC10D" stroke-linecap="round" stroke-linejoin="round"/>
<path d="M0 13.8932L0.0617247 0L1.71529 0.486816L1.57903 11.4502L7.39345 2.16816L9.05852 2.6487L8.92226 13.6121L14.7393 4.32115L16.4018 4.81058L8.92567 16.5209L7.34323 16.0551L7.41776 5.17012L1.58244 14.3591L0 13.8932Z" fill="#F9F9F9"/>
<path d="M27.2782 26.747L24.2012 13.7616L25.6621 13.4154L33.0186 22.5963L35.4463 11.097L36.9252 10.7466L40 23.723L38.476 24.0841L36.2367 14.6336L34.0685 25.138L33.2118 25.341L26.5607 16.9264L28.8022 26.3859L27.2782 26.747Z" fill="#F9F9F9"/>
</svg>
