<svg width="165" height="62" viewBox="0 0 165 62" fill="none" xmlns="http://www.w3.org/2000/svg">
<rect x="0.280029" width="164.72" height="62" rx="16" fill="#323236"/>
<g clip-path="url(#clip0_50_6123)">
<path d="M26.4246 30.4414L16.3757 40.9696C16.4886 41.3695 16.6914 41.7383 16.9686 42.0479C17.2458 42.3574 17.5902 42.5995 17.9753 42.7555C18.3604 42.9116 18.7761 42.9775 19.1906 42.9483C19.6051 42.9191 20.0074 42.7955 20.3669 42.5869L31.6737 36.1473L26.4246 30.4414Z" fill="#EA4335"/>
<path d="M36.5853 28.6522L31.6959 25.8516L26.1921 30.6812L31.7182 36.1326L36.5705 33.362C37.0003 33.1369 37.3604 32.7984 37.6116 32.3833C37.8628 31.9682 37.9956 31.4922 37.9956 31.007C37.9956 30.5218 37.8628 30.0459 37.6116 29.6307C37.3604 29.2156 37.0003 28.8772 36.5705 28.6521L36.5853 28.6522Z" fill="#FBBC04"/>
<path d="M16.3739 20.9922C16.3131 21.2167 16.2829 21.4484 16.284 21.6811V40.2812C16.2846 40.5138 16.3148 40.7453 16.3739 40.9702L26.7672 30.7116L16.3739 20.9922Z" fill="#4285F4"/>
<path d="M26.4995 30.9808L31.6962 25.8515L20.4043 19.3819C19.9795 19.1331 19.4963 19.0013 19.0039 19C17.7821 18.9976 16.708 19.8085 16.3757 20.9844L26.4995 30.9808Z" fill="#34A853"/>
</g>
<path d="M52.8651 19.0298C52.7827 18.7713 52.6719 18.5398 52.5327 18.3352C52.3963 18.1278 52.233 17.9517 52.0426 17.8068C51.8523 17.6591 51.6349 17.5469 51.3906 17.4702C51.1491 17.3935 50.8835 17.3551 50.5938 17.3551C50.1023 17.3551 49.6591 17.4815 49.2642 17.7344C48.8693 17.9872 48.5568 18.358 48.3267 18.8466C48.0994 19.3324 47.9858 19.9276 47.9858 20.6321C47.9858 21.3395 48.1009 21.9375 48.331 22.4261C48.5611 22.9148 48.8764 23.2855 49.277 23.5384C49.6776 23.7912 50.1335 23.9176 50.6449 23.9176C51.1193 23.9176 51.5327 23.821 51.8849 23.6278C52.2401 23.4347 52.5142 23.1619 52.7074 22.8097C52.9034 22.4545 53.0014 22.0369 53.0014 21.5568L53.3423 21.6207H50.8452V20.5341H54.2756V21.527C54.2756 22.2599 54.1193 22.8963 53.8068 23.4361C53.4972 23.973 53.0682 24.3878 52.5199 24.6804C51.9744 24.973 51.3494 25.1193 50.6449 25.1193C49.8551 25.1193 49.1619 24.9375 48.5653 24.5739C47.9716 24.2102 47.5085 23.6946 47.1761 23.027C46.8438 22.3565 46.6776 21.5611 46.6776 20.6406C46.6776 19.9446 46.7741 19.3196 46.9673 18.7656C47.1605 18.2116 47.4318 17.7415 47.7812 17.3551C48.1335 16.9659 48.5469 16.669 49.0213 16.4645C49.4986 16.2571 50.0199 16.1534 50.5852 16.1534C51.0568 16.1534 51.4957 16.223 51.902 16.3622C52.3111 16.5014 52.6747 16.6989 52.9929 16.9545C53.3139 17.2102 53.5795 17.5142 53.7898 17.8665C54 18.2159 54.142 18.6037 54.2159 19.0298H52.8651ZM58.6658 25.1321C58.021 25.1321 57.4656 24.9943 56.9996 24.7188C56.5366 24.4403 56.1786 24.0497 55.9258 23.5469C55.6758 23.0412 55.5508 22.4489 55.5508 21.7699C55.5508 21.0994 55.6758 20.5085 55.9258 19.9972C56.1786 19.4858 56.5309 19.0866 56.9826 18.7997C57.4371 18.5128 57.9684 18.3693 58.5763 18.3693C58.9457 18.3693 59.3036 18.4304 59.6502 18.5526C59.9968 18.6747 60.3079 18.8665 60.5835 19.1278C60.859 19.3892 61.0763 19.7287 61.2354 20.1463C61.3945 20.5611 61.4741 21.0653 61.4741 21.6591V22.1108H56.271V21.1562H60.2255C60.2255 20.821 60.1573 20.5241 60.021 20.2656C59.8846 20.0043 59.6928 19.7983 59.4457 19.6477C59.2013 19.4972 58.9144 19.4219 58.5849 19.4219C58.2269 19.4219 57.9144 19.5099 57.6474 19.6861C57.3832 19.8594 57.1786 20.0866 57.0337 20.3679C56.8917 20.6463 56.8207 20.9489 56.8207 21.2756V22.0213C56.8207 22.4588 56.8974 22.831 57.0508 23.1378C57.207 23.4446 57.4244 23.679 57.7028 23.8409C57.9812 24 58.3065 24.0795 58.6786 24.0795C58.9201 24.0795 59.1403 24.0455 59.3391 23.9773C59.538 23.9062 59.7099 23.8011 59.8548 23.6619C59.9996 23.5227 60.1104 23.3509 60.1871 23.1463L61.3931 23.3636C61.2965 23.7187 61.1232 24.0298 60.8732 24.2969C60.6261 24.5611 60.315 24.767 59.94 24.9148C59.5678 25.0597 59.1431 25.1321 58.6658 25.1321ZM65.9432 18.4545V19.4773H62.3679V18.4545H65.9432ZM63.3267 16.8864H64.6009V23.0781C64.6009 23.3253 64.6378 23.5114 64.7116 23.6364C64.7855 23.7585 64.8807 23.8423 64.9972 23.8878C65.1165 23.9304 65.2457 23.9517 65.3849 23.9517C65.4872 23.9517 65.5767 23.9446 65.6534 23.9304C65.7301 23.9162 65.7898 23.9048 65.8324 23.8963L66.0625 24.9489C65.9886 24.9773 65.8835 25.0057 65.7472 25.0341C65.6108 25.0653 65.4403 25.0824 65.2358 25.0852C64.9006 25.0909 64.5881 25.0312 64.2983 24.9062C64.0085 24.7812 63.7741 24.5881 63.5952 24.3267C63.4162 24.0653 63.3267 23.7372 63.3267 23.3423V16.8864ZM70.5284 25V18.4545H71.8026V25H70.5284ZM71.1719 17.4446C70.9503 17.4446 70.7599 17.3707 70.6009 17.223C70.4446 17.0724 70.3665 16.8935 70.3665 16.6861C70.3665 16.4759 70.4446 16.2969 70.6009 16.1491C70.7599 15.9986 70.9503 15.9233 71.1719 15.9233C71.3935 15.9233 71.5824 15.9986 71.7386 16.1491C71.8977 16.2969 71.9773 16.4759 71.9773 16.6861C71.9773 16.8935 71.8977 17.0724 71.7386 17.223C71.5824 17.3707 71.3935 17.4446 71.1719 17.4446ZM76.5721 18.4545V19.4773H72.9968V18.4545H76.5721ZM73.9556 16.8864H75.2298V23.0781C75.2298 23.3253 75.2667 23.5114 75.3406 23.6364C75.4144 23.7585 75.5096 23.8423 75.6261 23.8878C75.7454 23.9304 75.8746 23.9517 76.0138 23.9517C76.1161 23.9517 76.2056 23.9446 76.2823 23.9304C76.359 23.9162 76.4187 23.9048 76.4613 23.8963L76.6914 24.9489C76.6175 24.9773 76.5124 25.0057 76.3761 25.0341C76.2397 25.0653 76.0692 25.0824 75.8647 25.0852C75.5295 25.0909 75.217 25.0312 74.9272 24.9062C74.6374 24.7812 74.4031 24.5881 74.2241 24.3267C74.0451 24.0653 73.9556 23.7372 73.9556 23.3423V16.8864ZM83.9144 25.1321C83.3008 25.1321 82.7653 24.9915 82.3079 24.7102C81.8505 24.429 81.4954 24.0355 81.2425 23.5298C80.9897 23.0241 80.8633 22.4332 80.8633 21.7571C80.8633 21.0781 80.9897 20.4844 81.2425 19.9759C81.4954 19.4673 81.8505 19.0724 82.3079 18.7912C82.7653 18.5099 83.3008 18.3693 83.9144 18.3693C84.5281 18.3693 85.0636 18.5099 85.521 18.7912C85.9783 19.0724 86.3335 19.4673 86.5863 19.9759C86.8391 20.4844 86.9656 21.0781 86.9656 21.7571C86.9656 22.4332 86.8391 23.0241 86.5863 23.5298C86.3335 24.0355 85.9783 24.429 85.521 24.7102C85.0636 24.9915 84.5281 25.1321 83.9144 25.1321ZM83.9187 24.0625C84.3164 24.0625 84.646 23.9574 84.9073 23.7472C85.1687 23.5369 85.3619 23.2571 85.4869 22.9077C85.6147 22.5582 85.6786 22.1733 85.6786 21.7528C85.6786 21.3352 85.6147 20.9517 85.4869 20.6023C85.3619 20.25 85.1687 19.9673 84.9073 19.7543C84.646 19.5412 84.3164 19.4347 83.9187 19.4347C83.5181 19.4347 83.1857 19.5412 82.9215 19.7543C82.6602 19.9673 82.4656 20.25 82.3377 20.6023C82.2127 20.9517 82.1502 21.3352 82.1502 21.7528C82.1502 22.1733 82.2127 22.5582 82.3377 22.9077C82.4656 23.2571 82.6602 23.5369 82.9215 23.7472C83.1857 23.9574 83.5181 24.0625 83.9187 24.0625ZM89.6619 21.1136V25H88.3878V18.4545H89.6108V19.5199H89.6918C89.8423 19.1733 90.0781 18.8949 90.3991 18.6847C90.723 18.4744 91.1307 18.3693 91.6222 18.3693C92.0682 18.3693 92.4588 18.4631 92.794 18.6506C93.1293 18.8352 93.3892 19.1108 93.5739 19.4773C93.7585 19.8437 93.8509 20.2969 93.8509 20.8366V25H92.5767V20.9901C92.5767 20.5156 92.4531 20.1449 92.206 19.8778C91.9588 19.608 91.6193 19.473 91.1875 19.473C90.892 19.473 90.6293 19.5369 90.3991 19.6648C90.1719 19.7926 89.9915 19.9801 89.858 20.2273C89.7273 20.4716 89.6619 20.767 89.6619 21.1136Z" fill="#D2D2D8"/>
<path d="M56.2976 34.0447C56.174 33.657 56.0078 33.3097 55.799 33.0028C55.5945 32.6918 55.3494 32.4276 55.0639 32.2102C54.7784 31.9886 54.4524 31.8203 54.0859 31.7053C53.7237 31.5902 53.3253 31.5327 52.8906 31.5327C52.1534 31.5327 51.4886 31.7223 50.8963 32.1016C50.304 32.4808 49.8352 33.0369 49.4901 33.7699C49.1491 34.4986 48.9787 35.3913 48.9787 36.4482C48.9787 37.5092 49.1513 38.4062 49.4964 39.1392C49.8416 39.8722 50.3146 40.4283 50.9155 40.8075C51.5163 41.1868 52.2003 41.3764 52.9673 41.3764C53.679 41.3764 54.299 41.2315 54.8274 40.9418C55.3601 40.652 55.7713 40.2429 56.0611 39.7145C56.3551 39.1818 56.5021 38.5554 56.5021 37.8352L57.0135 37.9311H53.2678V36.3011H58.4134V37.7905C58.4134 38.8899 58.179 39.8445 57.7102 40.6541C57.2457 41.4595 56.6023 42.0817 55.7798 42.5206C54.9616 42.9595 54.0241 43.179 52.9673 43.179C51.7827 43.179 50.7429 42.9062 49.848 42.3608C48.9574 41.8153 48.2628 41.0419 47.7642 40.0405C47.2656 39.0348 47.0163 37.8416 47.0163 36.4609C47.0163 35.4169 47.1612 34.4794 47.451 33.6484C47.7408 32.8175 48.1477 32.1122 48.6719 31.5327C49.2003 30.9489 49.8203 30.5036 50.532 30.1967C51.2479 29.8857 52.0298 29.7301 52.8778 29.7301C53.5852 29.7301 54.2436 29.8345 54.853 30.0433C55.4666 30.2521 56.0121 30.5483 56.4893 30.9318C56.9709 31.3153 57.3693 31.7713 57.6847 32.2997C58 32.8239 58.2131 33.4055 58.3239 34.0447H56.2976ZM64.9029 43.1982C63.9824 43.1982 63.1792 42.9872 62.4931 42.5653C61.807 42.1435 61.2743 41.5533 60.8951 40.7947C60.5158 40.0362 60.3262 39.1499 60.3262 38.1357C60.3262 37.1172 60.5158 36.2266 60.8951 35.4638C61.2743 34.701 61.807 34.1087 62.4931 33.6868C63.1792 33.2649 63.9824 33.054 64.9029 33.054C65.8233 33.054 66.6266 33.2649 67.3127 33.6868C67.9988 34.1087 68.5314 34.701 68.9107 35.4638C69.29 36.2266 69.4796 37.1172 69.4796 38.1357C69.4796 39.1499 69.29 40.0362 68.9107 40.7947C68.5314 41.5533 67.9988 42.1435 67.3127 42.5653C66.6266 42.9872 65.8233 43.1982 64.9029 43.1982ZM64.9093 41.5938C65.5059 41.5938 66.0002 41.4361 66.3922 41.1207C66.7843 40.8054 67.074 40.3857 67.2615 39.8615C67.4533 39.3374 67.5492 38.7599 67.5492 38.1293C67.5492 37.5028 67.4533 36.9276 67.2615 36.4034C67.074 35.875 66.7843 35.451 66.3922 35.1314C66.0002 34.8118 65.5059 34.652 64.9093 34.652C64.3084 34.652 63.8098 34.8118 63.4135 35.1314C63.0215 35.451 62.7296 35.875 62.5378 36.4034C62.3503 36.9276 62.2566 37.5028 62.2566 38.1293C62.2566 38.7599 62.3503 39.3374 62.5378 39.8615C62.7296 40.3857 63.0215 40.8054 63.4135 41.1207C63.8098 41.4361 64.3084 41.5938 64.9093 41.5938ZM75.7486 43.1982C74.8281 43.1982 74.0249 42.9872 73.3388 42.5653C72.6527 42.1435 72.12 41.5533 71.7408 40.7947C71.3615 40.0362 71.1719 39.1499 71.1719 38.1357C71.1719 37.1172 71.3615 36.2266 71.7408 35.4638C72.12 34.701 72.6527 34.1087 73.3388 33.6868C74.0249 33.2649 74.8281 33.054 75.7486 33.054C76.669 33.054 77.4723 33.2649 78.1584 33.6868C78.8445 34.1087 79.3771 34.701 79.7564 35.4638C80.1357 36.2266 80.3253 37.1172 80.3253 38.1357C80.3253 39.1499 80.1357 40.0362 79.7564 40.7947C79.3771 41.5533 78.8445 42.1435 78.1584 42.5653C77.4723 42.9872 76.669 43.1982 75.7486 43.1982ZM75.755 41.5938C76.3516 41.5938 76.8459 41.4361 77.2379 41.1207C77.63 40.8054 77.9197 40.3857 78.1072 39.8615C78.299 39.3374 78.3949 38.7599 78.3949 38.1293C78.3949 37.5028 78.299 36.9276 78.1072 36.4034C77.9197 35.875 77.63 35.451 77.2379 35.1314C76.8459 34.8118 76.3516 34.652 75.755 34.652C75.1541 34.652 74.6555 34.8118 74.2592 35.1314C73.8672 35.451 73.5753 35.875 73.3835 36.4034C73.196 36.9276 73.1023 37.5028 73.1023 38.1293C73.1023 38.7599 73.196 39.3374 73.3835 39.8615C73.5753 40.3857 73.8672 40.8054 74.2592 41.1207C74.6555 41.4361 75.1541 41.5938 75.755 41.5938ZM86.5751 46.8864C85.7953 46.8864 85.1241 46.7841 84.5616 46.5795C84.0034 46.375 83.5474 46.1044 83.1937 45.7678C82.84 45.4311 82.5758 45.0625 82.4011 44.6619L84.0439 43.9844C84.1589 44.1719 84.3123 44.37 84.5041 44.5788C84.7001 44.7919 84.9643 44.973 85.2967 45.1222C85.6333 45.2713 86.0659 45.3459 86.5943 45.3459C87.3187 45.3459 87.9174 45.169 88.3904 44.8153C88.8635 44.4659 89.1 43.9077 89.1 43.1406V41.2102H88.9785C88.8635 41.419 88.6973 41.6513 88.4799 41.907C88.2669 42.1626 87.9728 42.3842 87.5978 42.5717C87.2228 42.7592 86.7349 42.853 86.1341 42.853C85.3585 42.853 84.6596 42.6719 84.0375 42.3097C83.4196 41.9432 82.9295 41.4041 82.5673 40.6925C82.2093 39.9766 82.0304 39.0966 82.0304 38.0526C82.0304 37.0085 82.2072 36.1136 82.5609 35.3679C82.9189 34.6222 83.4089 34.0511 84.0311 33.6548C84.6532 33.2543 85.3585 33.054 86.1468 33.054C86.7562 33.054 87.2484 33.1562 87.6234 33.3608C87.9984 33.5611 88.2903 33.7955 88.4991 34.0639C88.7122 34.3324 88.8762 34.5689 88.9913 34.7734H89.1319V33.1818H91.0048V43.2173C91.0048 44.0611 90.8088 44.7536 90.4167 45.2947C90.0247 45.8359 89.4941 46.2365 88.8251 46.4964C88.1603 46.7564 87.4103 46.8864 86.5751 46.8864ZM86.5559 41.2678C87.1056 41.2678 87.5701 41.1399 87.9494 40.8842C88.3329 40.6243 88.6227 40.2536 88.8187 39.772C89.019 39.2862 89.1191 38.7045 89.1191 38.027C89.1191 37.3665 89.0211 36.7848 88.8251 36.282C88.6291 35.7791 88.3414 35.3871 87.9622 35.1058C87.5829 34.8203 87.1142 34.6776 86.5559 34.6776C85.9806 34.6776 85.5012 34.8267 85.1177 35.125C84.7342 35.419 84.4444 35.8196 84.2484 36.3267C84.0566 36.8338 83.9608 37.4006 83.9608 38.027C83.9608 38.6705 84.0588 39.2351 84.2548 39.7209C84.4508 40.2067 84.7406 40.5859 85.1241 40.8587C85.5119 41.1314 85.9892 41.2678 86.5559 41.2678ZM95.4792 29.9091V43H93.568V29.9091H95.4792ZM102.282 43.1982C101.315 43.1982 100.482 42.9915 99.7827 42.5781C99.0881 42.1605 98.5511 41.5746 98.1719 40.8203C97.7969 40.0618 97.6094 39.1733 97.6094 38.1548C97.6094 37.1491 97.7969 36.2628 98.1719 35.4957C98.5511 34.7287 99.0795 34.13 99.7571 33.6996C100.439 33.2692 101.236 33.054 102.148 33.054C102.702 33.054 103.239 33.1456 103.759 33.3288C104.278 33.5121 104.745 33.7997 105.158 34.1918C105.572 34.5838 105.898 35.093 106.136 35.7195C106.375 36.3416 106.494 37.098 106.494 37.9886V38.6662H98.6896V37.2344H104.621C104.621 36.7315 104.519 36.2862 104.315 35.8984C104.11 35.5064 103.822 35.1974 103.452 34.9716C103.085 34.7457 102.655 34.6328 102.161 34.6328C101.624 34.6328 101.155 34.7649 100.754 35.0291C100.358 35.2891 100.051 35.63 99.8338 36.0518C99.6207 36.4695 99.5142 36.9233 99.5142 37.4134V38.532C99.5142 39.1882 99.6293 39.7464 99.8594 40.2067C100.094 40.6669 100.42 41.0185 100.837 41.2614C101.255 41.5 101.743 41.6193 102.301 41.6193C102.663 41.6193 102.994 41.5682 103.292 41.4659C103.59 41.3594 103.848 41.2017 104.065 40.9929C104.283 40.7841 104.449 40.5263 104.564 40.2195L106.373 40.5455C106.228 41.0781 105.968 41.5447 105.593 41.9453C105.222 42.3416 104.756 42.6506 104.193 42.8722C103.635 43.0895 102.998 43.1982 102.282 43.1982ZM113.532 43V29.9091H118.198C119.217 29.9091 120.06 30.0945 120.729 30.4652C121.398 30.8359 121.899 31.343 122.232 31.9865C122.564 32.6257 122.73 33.3459 122.73 34.147C122.73 34.9524 122.562 35.6768 122.225 36.3203C121.893 36.9595 121.39 37.4666 120.717 37.8416C120.048 38.2124 119.206 38.3977 118.192 38.3977H114.983V36.723H118.013C118.656 36.723 119.178 36.6122 119.579 36.3906C119.979 36.1648 120.273 35.858 120.461 35.4702C120.648 35.0824 120.742 34.6413 120.742 34.147C120.742 33.6527 120.648 33.2138 120.461 32.8303C120.273 32.4467 119.977 32.1463 119.572 31.929C119.172 31.7116 118.643 31.603 117.987 31.603H115.507V43H113.532ZM126.803 29.9091V43H124.892V29.9091H126.803ZM132.232 43.2173C131.61 43.2173 131.047 43.1023 130.544 42.8722C130.042 42.6378 129.643 42.299 129.349 41.8558C129.059 41.4126 128.914 40.8693 128.914 40.2259C128.914 39.6719 129.021 39.2159 129.234 38.858C129.447 38.5 129.735 38.2166 130.097 38.0078C130.459 37.799 130.864 37.6413 131.311 37.5348C131.759 37.4283 132.215 37.3473 132.679 37.2919C133.267 37.2237 133.745 37.1683 134.111 37.1257C134.478 37.0788 134.744 37.0043 134.91 36.902C135.076 36.7997 135.159 36.6335 135.159 36.4034V36.3587C135.159 35.8004 135.002 35.3679 134.686 35.0611C134.375 34.7543 133.911 34.6009 133.293 34.6009C132.65 34.6009 132.142 34.7436 131.772 35.0291C131.405 35.3104 131.152 35.6236 131.011 35.9688L129.215 35.5597C129.428 34.9631 129.739 34.4815 130.148 34.1151C130.561 33.7443 131.037 33.4759 131.574 33.3097C132.11 33.1392 132.675 33.054 133.267 33.054C133.659 33.054 134.075 33.1009 134.514 33.1946C134.957 33.2841 135.37 33.4503 135.754 33.6932C136.142 33.9361 136.459 34.2834 136.706 34.7351C136.953 35.1825 137.077 35.7642 137.077 36.4801V43H135.211V41.6577H135.134C135.01 41.9048 134.825 42.1477 134.578 42.3864C134.331 42.625 134.013 42.8232 133.625 42.9808C133.238 43.1385 132.773 43.2173 132.232 43.2173ZM132.647 41.6832C133.176 41.6832 133.627 41.5788 134.002 41.37C134.382 41.1612 134.669 40.8885 134.865 40.5518C135.066 40.2109 135.166 39.8466 135.166 39.4588V38.1932C135.098 38.2614 134.966 38.3253 134.77 38.3849C134.578 38.4403 134.358 38.4893 134.111 38.532C133.864 38.5703 133.623 38.6065 133.389 38.6406C133.154 38.6705 132.958 38.696 132.801 38.7173C132.43 38.7642 132.091 38.843 131.784 38.9538C131.482 39.0646 131.239 39.2244 131.056 39.4332C130.877 39.6378 130.787 39.9105 130.787 40.2514C130.787 40.7244 130.962 41.0824 131.311 41.3253C131.661 41.5639 132.106 41.6832 132.647 41.6832ZM140.479 46.6818C140.194 46.6818 139.934 46.6584 139.699 46.6115C139.465 46.5689 139.29 46.522 139.175 46.4709L139.635 44.9048C139.985 44.9986 140.296 45.0391 140.569 45.0263C140.841 45.0135 141.082 44.9112 141.291 44.7195C141.504 44.5277 141.692 44.2145 141.854 43.7798L142.09 43.1278L138.498 33.1818H140.543L143.03 40.8011H143.132L145.618 33.1818H147.67L143.624 44.3104C143.437 44.8217 143.198 45.2543 142.908 45.608C142.618 45.9659 142.273 46.2344 141.873 46.4134C141.472 46.5923 141.008 46.6818 140.479 46.6818Z" fill="#F9F9F9"/>
<defs>
<clipPath id="clip0_50_6123">
<rect width="21.72" height="24" fill="white" transform="translate(16.28 19)"/>
</clipPath>
</defs>
</svg>
