<svg width="56" height="46" viewBox="0 0 56 46" fill="none" xmlns="http://www.w3.org/2000/svg">
<path d="M12.3594 43.4188L13.5787 37.7828M19.874 45.0446L20.6869 41.2873M32.3189 36.0809C31.8535 36.3489 31.337 36.5164 30.8029 36.5726C30.2688 36.6288 29.7288 36.5725 29.2178 36.4073L18.1897 32.8413C17.2826 32.548 16.5169 31.9282 16.0411 31.1021C15.5654 30.276 15.4135 29.3025 15.6151 28.3708L18.8586 13.3791C18.9722 12.8542 19.1945 12.3589 19.5113 11.9251C19.828 11.4914 20.2321 11.1288 20.6975 10.8608C21.1629 10.5928 21.6794 10.4252 22.2135 10.369C22.7476 10.3128 23.2876 10.3691 23.7986 10.5344L34.8267 14.1003C35.7338 14.3936 36.4995 15.0135 36.9753 15.8396M16.0626 30.8472L27.9684 27.6854C28.6238 27.306 29.1981 26.8013 29.6585 26.2C30.1188 25.5987 30.4563 24.9126 30.6514 24.1809C30.8466 23.4492 30.8958 22.6862 30.7961 21.9355C30.6964 21.1848 30.4498 20.4611 30.0705 19.8057L21.2697 11.3245" stroke="#1C8113" stroke-linecap="round" stroke-linejoin="round"/>
<path d="M0 20.4058L0.0864146 0.955322L2.4014 1.63687L2.21064 16.9856L10.3508 3.99074L12.6819 4.6635L12.4912 20.0122L20.635 7.00493L22.9625 7.69014L12.4959 24.0846L10.2805 23.4324L10.3849 8.19349L2.21542 21.058L0 20.4058Z" fill="#323236"/>
<path d="M38.1895 38.4012L33.8817 20.2215L35.9269 19.7369L46.226 32.5901L49.6248 16.4911L51.6952 16.0005L56 34.1675L53.8664 34.6731L50.7313 21.4424L47.6959 36.1486L46.4966 36.4328L37.185 24.6522L40.3231 37.8956L38.1895 38.4012Z" fill="#323236"/>
</svg>
