<svg width="56" height="46" viewBox="0 0 56 46" fill="none" xmlns="http://www.w3.org/2000/svg">
<path d="M12.3594 43.4191L13.5787 37.7831M19.874 45.0449L20.6869 41.2876M32.3189 36.0811C31.8535 36.3491 31.337 36.5166 30.8029 36.5729C30.2688 36.6291 29.7288 36.5727 29.2178 36.4075L18.1897 32.8416C17.2826 32.5483 16.5169 31.9284 16.0411 31.1023C15.5654 30.2762 15.4135 29.3028 15.6151 28.371L18.8586 13.3793C18.9722 12.8544 19.1945 12.3591 19.5113 11.9254C19.828 11.4916 20.2321 11.129 20.6975 10.861C21.1629 10.593 21.6794 10.4255 22.2135 10.3693C22.7476 10.313 23.2876 10.3694 23.7986 10.5346L34.8267 14.1005C35.7338 14.3938 36.4995 15.0137 36.9753 15.8398M16.0626 30.8474L27.9684 27.6856C28.6238 27.3063 29.1981 26.8016 29.6585 26.2003C30.1188 25.599 30.4563 24.9129 30.6514 24.1812C30.8466 23.4495 30.8958 22.6865 30.7961 21.9358C30.6964 21.1851 30.4498 20.4614 30.0705 19.806L21.2697 11.3248" stroke="#129806" stroke-linecap="round" stroke-linejoin="round"/>
<path d="M0 20.406L0.0864146 0.955566L2.4014 1.63711L2.21064 16.9858L10.3508 3.99099L12.6819 4.66375L12.4912 20.0125L20.635 7.00518L22.9625 7.69038L12.4959 24.0849L10.2805 23.4326L10.3849 8.19373L2.21542 21.0582L0 20.406Z" fill="#F9F9F9"/>
<path d="M38.1895 38.4014L33.8817 20.2218L35.9269 19.7371L46.226 32.5904L49.6248 16.4914L51.6952 16.0008L56 34.1678L53.8664 34.6733L50.7313 21.4426L47.6959 36.1488L46.4966 36.433L37.185 24.6525L40.3231 37.8958L38.1895 38.4014Z" fill="#F9F9F9"/>
</svg>
